<?xml version="1.0" encoding="UTF-8" standalone="no"?>
<svg
   xmlns:dc="http://purl.org/dc/elements/1.1/"
   xmlns:cc="http://creativecommons.org/ns#"
   xmlns:rdf="http://www.w3.org/1999/02/22-rdf-syntax-ns#"
   xmlns:svg="http://www.w3.org/2000/svg"
   xmlns="http://www.w3.org/2000/svg"
   xmlns:sodipodi="http://sodipodi.sourceforge.net/DTD/sodipodi-0.dtd"
   xmlns:inkscape="http://www.inkscape.org/namespaces/inkscape"
   inkscape:version="1.0 (4035a4fb49, 2020-05-01)"
   sodipodi:docname="AMD Ryzen logo.svg"
   viewBox="0 0 920 500"
   height="500"
   width="920"
   id="svg833"
   version="1.1">
  <metadata
     id="metadata839">
    <rdf:RDF>
      <cc:Work
         rdf:about="">
        <dc:format>image/svg+xml</dc:format>
        <dc:type
           rdf:resource="http://purl.org/dc/dcmitype/StillImage" />
        <dc:title></dc:title>
      </cc:Work>
    </rdf:RDF>
  </metadata>
  <defs
     id="defs837" />
  <sodipodi:namedview
     inkscape:current-layer="g845"
     inkscape:window-maximized="1"
     inkscape:window-y="-8"
     inkscape:window-x="-8"
     inkscape:cy="-66.882246"
     inkscape:cx="634.87692"
     inkscape:zoom="0.75"
     showgrid="false"
     id="namedview835"
     inkscape:window-height="1017"
     inkscape:window-width="1920"
     inkscape:pageshadow="2"
     inkscape:pageopacity="0"
     guidetolerance="10"
     gridtolerance="10"
     objecttolerance="10"
     borderopacity="1"
     bordercolor="#666666"
     pagecolor="#ffffff" />
  <g
     id="g841"
     inkscape:label="Image"
     inkscape:groupmode="layer">
    <g
       id="g845">
      <path
         id="path861"
         d="M 0,250 V 0 H 460 920 V 250 500 H 460 0 Z M 81.766072,345.25 82.032144,318 h 23.960876 23.96087 l 1.77306,2.70524 c 0.97518,1.48788 8.13184,13.75038 15.9037,27.25 l 14.13064,24.54476 16.23607,0.27533 c 12.84596,0.21784 16.12908,0.009 15.72371,-1 C 193.43928,371.0739 186.44322,358.8 178.17429,344.5 l -15.03444,-26 4.55849,-0.68547 c 9.19857,-1.38321 18.6135,-10.07576 21.26915,-19.63722 1.62921,-5.86584 1.30658,-36.89141 -0.44496,-42.78949 -1.89117,-6.36825 -7.35373,-12.73298 -13.88468,-16.1778 L 169.5,236.5 h -58 -58 v 13.5 13.5 l 54,0.5 54,0.5 0.27981,12.74137 0.27982,12.74138 -54.27982,0.25862 L 53.5,290.5 53.238306,330.49834 c -0.143931,21.99908 -0.04066,40.57434 0.229496,41.27835 0.373543,0.97344 3.789389,1.21335 14.261693,1.00166 L 81.5,372.5 Z M 299,344.73721 l 0.5,-27.76278 20,-27.66438 c 11,-15.21541 23.75285,-32.828 28.33966,-39.13908 4.58682,-6.31109 8.57246,-12.08137 8.85699,-12.82284 C 357.11805,236.24998 354.07226,236 340.27078,236 h -16.9432 l -18.77896,26.01216 c -10.32843,14.30669 -19.12603,26.22666 -19.55022,26.48883 -0.42419,0.26217 -9.27785,-11.33081 -19.67479,-25.76216 L 246.42007,236.5 229.21004,236.22639 C 219.74452,236.0759 212,236.18669 212,236.47258 c 0,0.2859 13.04851,18.63402 28.9967,40.77362 l 28.99669,40.2538 0.003,27.08333 c 0.002,14.89584 0.31543,27.39547 0.69693,27.77696 0.38149,0.3815 6.79399,0.569 14.25,0.41667 L 298.5,372.5 Z m 221,14.27268 V 345.01978 L 473.53483,344.75989 427.06966,344.5 440.28483,333.13548 C 447.55317,326.885 468.4625,308.888 486.75,293.14214 L 520,264.51332 V 250.25666 236 h -68 -68 v 13.99011 13.99011 l 46.42754,0.25989 L 476.85507,264.5 430.42754,304.48202 384,344.46403 V 358.73202 373 h 68 68 z m 173,-0.01 v -14 h -54 -54 v -13.5 -13.5 h 54 54 v -14 -14 h -68 -68 v 41.5 41.5 h 68 68 z M 761.24011,326.25 761.5,279.5 789,311.51466 c 15.125,17.60807 33.125,38.61437 40,46.68067 l 12.5,14.666 14.25,0.0693 L 870,373 V 304.5 236 H 856.00989 842.01978 L 841.75989,282.685 841.5,329.37001 817.03811,300.935 C 803.58407,285.29575 786.98389,265.975 780.14881,258 773.31373,250.025 766.11776,241.8125 764.15775,239.75 L 760.5941,236 H 746.79705 733 v 67.83333 c 0,37.30834 0.3,68.13334 0.66667,68.5 C 734.03333,372.7 740.32888,373 747.65678,373 h 13.32344 z M 693,250 v -14 h -68 -68 v 14 14 h 68 68 z M 320.49449,191.62103 C 326.27252,185.91259 331,180.96259 331,180.62103 331,180.27946 324.7,180 317,180 h -14 v -14 c 0,-7.7 -0.34554,-14 -0.76787,-14 -0.42232,0 -5.37232,4.62018 -11,10.26707 L 281,172.53415 v 14.06626 c 0,7.73644 0.3,14.36626 0.66667,14.73292 C 282.03333,201.7 288.55585,202 296.16115,202 h 13.82782 z M 355,164.5 V 128 H 318.26787 281.53573 L 292,138.5 302.46427,149 H 318.23213 334 v 15.73293 15.73292 l 10.23213,10.26708 C 349.85981,196.37982 354.58481,201 354.73213,201 354.87946,201 355,184.575 355,164.5 Z m -285.075168,26 2.294694,-6.5 h 13.732563 13.732563 l 2.446638,6.25 2.44663,6.25 8.71104,0.28893 c 5.80339,0.19249 8.71104,-0.0753 8.71104,-0.80244 0,-0.60025 -6.17205,-15.01777 -13.71567,-32.03893 L 94.568668,133 h -9.565902 -9.565901 l -12.335594,30.75 c -6.784577,16.9125 -12.556017,31.3125 -12.825421,32 -0.369604,0.9432 1.700009,1.25 8.43223,1.25 h 8.922058 z m 7.569452,-20.25 c 0.389544,-0.9625 2.306011,-5.93216 4.258815,-11.04368 l 3.550553,-9.29369 3.847355,9.29369 c 2.116046,5.11152 4.103049,10.08118 4.415562,11.04368 0.511659,1.57584 -0.295066,1.75 -8.10617,1.75 -7.864458,0 -8.608247,-0.1634 -7.966115,-1.75 z M 145.5,177.74939 c 0,-10.31284 0.0804,-18.75034 0.17865,-18.75 0.0983,3.4e-4 3.64242,4.05061 7.87592,9.00061 4.36771,5.10693 8.4706,9 9.48506,9 1.00889,0 4.6349,-3.4135 8.32262,-7.83485 3.59415,-4.30916 7.12048,-8.32136 7.83629,-8.91599 1.06075,-0.88119 1.30146,2.37125 1.30146,17.58484 V 196.5 l 8.25,0.29044 8.25,0.29044 V 165.04044 133 l -7.25,0.0228 -7.25,0.0228 -9.38437,10.97719 C 167.95423,150.06026 163.39643,155 162.98718,155 c -0.40924,0 -4.96127,-4.93463 -10.11563,-10.96584 L 143.5,133.06832 136.25,133.03416 129,133 v 32.04044 32.04044 l 8.25,-0.29044 8.25,-0.29044 z m 103.51372,17.39466 c 5.93508,-1.87083 14.11573,-7.43796 17.1104,-11.64405 4.32139,-6.06951 6.48045,-16.14729 5.07663,-23.69597 -2.16572,-11.64557 -7.55115,-18.84145 -17.56367,-23.46814 -5.98247,-2.76445 -6.63463,-2.84408 -25.88708,-3.16095 L 208,132.84988 v 32.18289 32.18288 l 18.75,-0.48201 c 10.3125,-0.26511 20.33117,-0.98043 22.26372,-1.58959 z M 225,165.02579 v -19.21885 l 9.42907,0.34653 c 10.14558,0.37286 12.69625,1.455 16.99227,7.20905 3.09326,4.14309 3.48561,15.9394 0.71103,21.37801 -3.20925,6.29065 -7.83087,8.58129 -18.32609,9.08308 L 225,184.24464 Z"
         style="fill:#fdfdfd" />
      <path
         id="path847"
         d="m 54,331.50861 v -40.49139 l 54.25,-0.25861 54.25,-0.25861 0.28166,-12.35939 c 0.18819,-8.25828 -0.1013,-12.82083 -0.87245,-13.75 C 160.95007,263.23491 151.73811,263 107.37756,263 H 54 v -13 -13 l 55.75,0.006 c 34.85901,0.003 57.12798,0.3883 59.42731,1.02693 6.33719,1.76013 12.88695,6.99052 16.23855,12.96749 l 3.08414,5.5 v 21 c 0,23.4222 -0.20188,24.29533 -7.36018,31.83242 -4.42168,4.65566 -7.47207,6.33102 -14.12484,7.75779 l -5.08495,1.09053 2.35318,4.15963 c 5.96461,10.54343 26.16644,45.39781 27.47893,47.40963 l 1.46788,2.25 -15.36501,-0.0204 -15.36501,-0.0204 -5.57186,-9.7296 c -3.06453,-5.35129 -10.03953,-17.48247 -15.5,-26.95818 L 131.5,318.04286 105.75,318.02143 80,318 v 27 27 H 67 54 Z m 218,13.88437 V 318.78597 L 260.79333,303.14298 C 254.62966,294.53934 241.37131,276.1375 231.33032,262.25 L 213.07399,237 h 16.28392 16.28393 l 18.92908,26.44824 c 10.41099,14.54653 19.39141,26.47153 19.95649,26.5 0.56507,0.0285 9.56507,-11.85806 20,-26.41451 L 323.5,237.06746 l 16.37244,-0.0337 c 12.94253,-0.0267 16.17323,0.22814 15.42149,1.21627 -0.52303,0.6875 -6.95588,9.575 -14.29523,19.75 -14.79662,20.51348 -32.0333,44.33241 -38.67048,53.43774 L 298,317.37548 V 344.68774 372 H 285 272 Z M 385.06616,358.25 385.13236,344.5 431.5662,304.58371 C 457.10477,282.62974 478,264.29224 478,263.83371 478,263.37517 457.075,263 431.5,263 H 385 v -13 -13 h 67 67 v 13.91667 c 0,7.65416 -0.3918,14.06666 -0.87066,14.25 C 516.40803,265.82567 426,344.30985 426,345.14513 426,345.61531 446.925,346 472.5,346 H 519 v 13 13 h -67 -67 l 0.0662,-13.75 z M 558,331.5 V 291 h 67 67 v 13.5 13.5 h -54.02822 -54.02822 l 0.27822,13.75 0.27822,13.75 53.75,0.25869 53.75,0.25868 V 359.00869 372 h -67 -67 z m 176,-27 V 237 h 13.41377 13.41377 l 8.33623,9.7286 c 38.24751,44.63583 72.25133,83.82911 72.96868,84.10473 0.4825,0.18539 0.86755,-20.56386 0.86755,-46.75 L 843,237 h 13 13 V 304.5 372 H 855.59534 842.19069 L 802.03138,325.25 C 779.94376,299.5375 761.45086,278.35 760.93604,278.16667 760.36319,277.96267 760,296.1019 760,324.91667 V 372 H 747 734 Z M 558,250 v -13 h 67 67 v 13 13 H 625 558 Z M 282,186.73124 V 172.46248 L 292,162.5 302,152.53752 V 166.76876 181 h 13.73124 13.73124 L 319.5,191 309.53752,201 H 295.76876 282 Z m 62.23025,2.99997 L 335,180.46242 V 164.23121 148 H 318.73025 302.4605 L 293,138.5 283.5395,129 H 318.76975 354 v 35 c 0,19.25 -0.12139,35 -0.26975,35 -0.14836,0 -4.42336,-4.17096 -9.5,-9.26879 z M 63.172413,166.25 c 6.622148,-16.3625 12.271764,-30.32867 12.554703,-31.03593 0.378151,-0.94526 2.893137,-1.21018 9.49341,-1 l 8.978975,0.28593 13.352259,30 c 7.34375,16.5 13.37386,30.3375 13.40025,30.75 0.0264,0.4125 -3.48106,0.75 -7.79434,0.75 h -7.84232 l -2.44936,-6.25 -2.44935,-6.25 H 86.007413 71.59819 l -2.386575,6.25 -2.386574,6.25 h -7.846449 -7.846448 z m 31.891047,4.5 c -4.150603,-10.52814 -8.983422,-21.22217 -9.695573,-21.45431 -0.701029,-0.22851 -3.625552,6.95834 -9.137257,22.45431 -0.336744,0.94675 2.001382,1.25 9.63763,1.25 10.051814,0 10.079562,-0.007 9.1952,-2.25 z M 130,165 v -31 h 6.43709 6.43708 l 9.81292,11.42159 c 5.3971,6.28188 10.03791,11.42159 10.31291,11.42159 0.275,0 4.91581,-5.13971 10.31291,-11.42159 L 183.12583,134 H 189.56291 196 v 31 31 h -7 -7 v -19.5 c 0,-10.725 -0.38221,-19.5 -0.84935,-19.5 -0.46714,0 -4.40464,4.27002 -8.75,9.48894 -4.34536,5.21891 -8.57565,9.48893 -9.40065,9.48893 -0.825,0 -5.05529,-4.27002 -9.40065,-9.48893 C 149.25399,161.27002 145.31649,157 144.84935,157 144.38221,157 144,165.775 144,176.5 V 196 h -7 -7 z m 79,-0.092 v -31.09203 l 19.2746,0.34203 19.2746,0.34202 6.72044,3.31022 c 3.77723,1.86051 7.80435,4.7313 9.1954,6.55506 9.54617,12.51567 9.20343,31.06637 -0.76626,41.47401 C 255.44519,193.41151 245.05856,196 221.92764,196 H 209 v -31.09202 z m 34.74552,18.55388 c 4.7503,-1.9848 7.02196,-4.08929 9.36089,-8.67202 2.2825,-4.47217 2.54114,-14.30428 0.50449,-19.17865 C 250.47949,148.11666 242.22133,144 230.3185,144 H 224 v 20.5 20.5 h 8.03212 c 4.96595,0 9.4374,-0.58717 11.7134,-1.53814 z"
         style="fill:#000000" />
    </g>
  </g>
</svg>
