<?xml version="1.0" encoding="utf-8"?>
<!-- Generator: Adobe Illustrator 19.0.0, SVG Export Plug-In . SVG Version: 6.00 Build 0)  -->
<svg version="1.1" id="layer" xmlns="http://www.w3.org/2000/svg" xmlns:xlink="http://www.w3.org/1999/xlink" x="0px" y="0px"
	 viewBox="-153 -46 652 652" style="enable-background:new -153 -46 652 652;" xml:space="preserve">
<style type="text/css">
	.st0{fill:#16AB03;}
	.st1{fill:#5E33BF;}
</style>
<title>ecclesia_group_db</title>
<path class="st0" d="M-102.4,304.9c2.9,7.7,6.9,15,11.8,21.6c20.2-5,38.5-15.6,52.8-30.5c-3.3-7.6-7.6-14.7-12.9-21.1
	C-63.7,290.8-82.1,301.5-102.4,304.9z"/>
<path class="st1" d="M-90.6,223.4c-5,6.6-8.9,13.9-11.8,21.7c20.3,3.5,38.7,14.1,51.8,30c5.3-6.4,9.6-13.5,12.9-21.1
	C-52.1,238.9-70.4,228.3-90.6,223.4z"/>
<path d="M-102.4,304.9c-6.3-16.7-7.1-35-2.5-52.2c0.7-2.6,1.5-5.2,2.5-7.7c-8.1-1.4-16.4-1.6-24.6-0.6c-5.8,19.9-5.8,41.1,0,61.1
	C-118.8,306.5-110.5,306.3-102.4,304.9z"/>
<path d="M32.5,302.6c10.2,0.5,19.5-5.9,22.4-15.7H73c-4.6,18.5-21.4,31.3-40.5,30.8c-23.1,0.7-42.4-17.4-43.1-40.5
	c0-0.8,0-1.5,0-2.3c-0.5-23.1,17.8-42.2,40.8-42.8c0.8,0,1.5,0,2.3,0c19.1-0.5,35.9,12.3,40.5,30.8H54.9c-3-9.8-12.2-16.2-22.4-15.7
	c-15.6,0-26,11.8-26,27.6C6.5,290.8,16.9,302.6,32.5,302.6z M96.7,316.3H81.5v-82.7h15.2V316.3z M139,280.3c0-3.9-3.1-6.4-9-6.4
	c-5.8,0.4-11.3,2.1-16.3,5.1l-6-11.6c7-4.2,15-6.5,23.2-6.6c12.3,0,23.5,5.7,23.5,20v35.6H139v-5.1c-3.7,4.4-9.3,6.9-15.1,6.5
	c-9.8,0.7-18.2-6.7-18.9-16.5c0-0.2,0-0.3,0-0.5c0-10.3,7.6-16.7,19.6-16.7h10.6c2.6,0,3.8-1.2,3.8-3.2L139,280.3z M139,296.9V293
	c-1.4,1-3.1,1.4-4.7,1.2h-5.8c-4.8,0-7.7,2.1-7.7,5.9c0,3.7,3,6.4,7.7,6.4c5.1,0.6,9.8-3,10.4-8.1C139,297.9,139,297.4,139,296.9z
	 M196.7,277.3h-6.5c-7.8,0-11.3,3.7-11.3,13.1v25.9h-15.4v-54.1h14.9v8.6c2.1-5.8,7.8-9.6,14.1-9.3c1.4,0,2.9,0.1,4.3,0.5
	L196.7,277.3z M226.8,316.3h-15.4v-41.1h-7.6v-13h22.9V316.3z M218.4,233.6c5.5,0,9.9,4.4,9.9,9.9c0,0,0,0,0,0
	c0,5.4-4.5,9.8-9.9,9.8c-5.4,0-9.8-4.4-9.8-9.8C208.6,238.1,213,233.7,218.4,233.6z M261.3,299.8l12.3-37.6h16.2l-19.3,54.1h-19
	L233,262.2h16.7L261.3,299.8z M324.5,280.3c0-3.9-3.1-6.4-9-6.4c-5.8,0.4-11.3,2.1-16.3,5.1l-6-11.6c7-4.2,15-6.5,23.1-6.6
	c12.3,0,23.5,5.7,23.5,20v35.6h-15.4v-5.1c-3.7,4.4-9.3,6.9-15.1,6.5c-9.8,0.7-18.2-6.7-18.9-16.5c0-0.2,0-0.3,0-0.5
	c0-10.3,7.6-16.7,19.6-16.7h10.6c2.6,0,3.8-1.2,3.8-3.2L324.5,280.3z M324.5,296.9V293c-1.4,1-3.1,1.4-4.7,1.2H314
	c-4.8,0-7.7,2.1-7.7,5.9c0,3.7,3,6.4,7.7,6.4c5.1,0.6,9.8-3,10.4-8.1C324.5,297.9,324.5,297.4,324.5,296.9z M369.5,241.7v20.6h11.7
	v13h-11.7v24.4c0,3.4,2.7,3.9,5.1,3.9c3.9,0,7.1-0.4,7.1-0.4v13.1c0,0-7.4,0.7-11.9,0.7c-7.7,0-15.6-1.3-15.6-12.2v-29.6h-8.5v-13
	h8.5v-20.6H369.5z M442.5,293.7h-40.3c1.1,7,7.7,11.8,14.7,10.7c3.5-0.5,6.6-2.5,8.6-5.4l15.9,1.7c-6.6,14.6-23.8,21-38.4,14.4
	c-10.2-4.6-16.8-14.7-17-25.9c-0.6-15.1,11.2-27.9,26.3-28.5c0.6,0,1.2,0,1.8,0c14.9,0,28.3,9.7,28.3,32.4L442.5,293.7z
	 M401.8,283.5H426c-0.9-5.8-6-10.1-11.9-9.9C408.1,273.3,402.9,277.6,401.8,283.5z M450.8,237.5h-4.1v10.9h-4.3v-10.9h-4.1v-3.8
	h12.6V237.5z M459.2,245.3l-1.9-5.3v8.4h-4.1v-14.7h5.7l2.1,6.1l2.3-6.1h5.3v14.7h-4.2V240l-1.9,5.3H459.2z"/>
</svg>
