<?xml version="1.0" standalone="no"?>
<!DOCTYPE svg PUBLIC "-//W3C//DTD SVG 20010904//EN"
 "http://www.w3.org/TR/2001/REC-SVG-20010904/DTD/svg10.dtd">
<svg version="1.0" xmlns="http://www.w3.org/2000/svg"
 width="600.000000pt" height="600.000000pt" viewBox="0 0 600.000000 600.000000"
 preserveAspectRatio="xMidYMid meet">

<g transform="translate(0.000000,600.000000) scale(0.100000,-0.100000)"
fill="#000000" stroke="none">
<path d="M2890 5656 c-19 -8 -512 -252 -1095 -544 -1143 -571 -1109 -552
-1157 -657 -22 -48 -23 -63 -26 -317 -2 -148 0 -268 4 -268 4 0 536 266 1181
590 646 325 1180 590 1186 590 7 0 410 -200 897 -444 l885 -444 5 -546 5 -546
283 172 282 173 -2 500 -3 500 -29 52 c-15 28 -43 65 -60 82 -34 33 -2118
1092 -2185 1111 -49 13 -128 11 -171 -4z"/>
<path d="M897 2841 l-288 -175 3 -490 3 -491 26 -56 c45 -95 77 -117 409 -284
168 -85 568 -287 890 -450 322 -163 668 -337 768 -388 l184 -92 79 0 79 0
1081 540 c1041 520 1083 542 1130 593 74 80 79 108 79 409 0 139 -2 253 -5
253 -3 0 -537 -266 -1188 -592 l-1183 -591 -885 446 -884 446 -5 549 -5 549
-288 -176z"/>
</g>
</svg>
