<?xml version="1.0" standalone="no"?>
<!DOCTYPE svg PUBLIC "-//W3C//DTD SVG 20010904//EN"
 "http://www.w3.org/TR/2001/REC-SVG-20010904/DTD/svg10.dtd">
<svg version="1.0" xmlns="http://www.w3.org/2000/svg"
 width="196.000000pt" height="196.000000pt" viewBox="0 0 196.000000 196.000000"
 preserveAspectRatio="xMidYMid meet">

<g transform="translate(0.000000,196.000000) scale(0.100000,-0.100000)"
fill="#000000" stroke="none">
<path d="M949 1608 l0 -153 -80 -67 -80 -68 -175 0 -174 0 -45 -91 c-50 -99
-49 -119 7 -119 l29 0 -3 -117 -3 -118 -35 -2 c-19 -1 -41 -2 -49 -2 -22 -1
-8 -142 22 -230 35 -101 81 -173 158 -250 77 -77 148 -122 251 -158 64 -23 89
-27 203 -27 118 -1 138 2 210 27 105 37 181 84 255 158 105 106 176 259 187
406 6 80 9 76 -59 73 l-38 -2 0 121 0 121 28 0 c54 0 54 16 4 116 l-47 94
-173 0 -173 0 -85 73 c-84 71 -84 72 -82 115 l3 42 91 4 c50 2 96 6 103 10 7
4 11 39 11 91 l0 83 -102 -1 c-73 -2 -102 1 -105 11 -3 6 -16 12 -29 12 l-24
0 -1 -152z m211 41 c0 -43 -10 -49 -80 -49 -68 0 -80 7 -80 44 0 18 2 35 4 37
2 2 38 4 80 4 l76 0 0 -36z m-95 -305 l75 -66 -2 -201 -3 -202 -25 0 c-23 0
-25 4 -30 62 -8 94 -60 138 -135 113 -45 -15 -63 -47 -67 -116 -3 -55 -5 -59
-28 -59 l-25 0 -2 205 -2 205 72 62 c40 34 77 62 84 62 7 1 46 -29 88 -65z
m-295 -129 l0 -55 -175 0 c-96 0 -175 2 -175 5 0 3 11 28 25 55 l25 50 150 0
150 0 0 -55z m743 0 l27 -55 -175 0 -175 0 0 55 0 55 148 0 148 0 27 -55z
m-745 -222 l-3 -118 -140 0 -140 0 -3 118 -3 117 146 0 146 0 -3 -117z m710 0
l-3 -118 -142 -3 -143 -3 0 121 0 120 145 0 146 0 -3 -117z m-466 0 c13 -12
18 -30 18 -70 l0 -53 -50 0 -50 0 0 54 c0 78 38 109 82 69z m-381 -228 c3 -33
9 -83 13 -111 l7 -50 -83 -23 c-46 -13 -90 -25 -99 -28 -11 -3 -22 9 -37 45
-28 65 -52 157 -52 199 l0 34 123 -3 122 -3 6 -60z m647 36 c2 -13 -2 -61 -8
-107 l-12 -84 -77 8 c-99 9 -316 9 -407 0 l-72 -8 -11 63 c-6 35 -11 85 -11
110 l0 47 298 -2 297 -3 3 -24z m298 14 c10 -26 -17 -141 -47 -206 -22 -47
-33 -60 -46 -55 -9 4 -50 15 -91 26 -41 11 -77 22 -79 24 -5 4 15 189 23 214
2 9 35 12 119 12 94 0 117 -3 121 -15z m-358 -251 c29 -8 25 -30 -21 -123
l-32 -63 -185 0 -185 0 -22 39 c-27 45 -57 132 -49 140 20 20 430 26 494 7z
m-538 -56 c7 -24 23 -65 37 -91 13 -27 23 -50 21 -52 -2 -2 -23 -6 -48 -10
-41 -6 -49 -3 -91 29 -45 36 -115 114 -107 121 6 6 141 43 159 44 10 1 20 -14
29 -41z m710 21 c41 -11 76 -22 79 -24 6 -6 -54 -71 -106 -117 -44 -38 -49
-39 -92 -33 -25 4 -47 8 -49 9 -1 2 11 32 27 67 15 35 31 76 35 92 8 32 11 33
106 6z m-170 -215 c8 -8 1 -16 -27 -27 -112 -45 -283 -47 -406 -7 -37 13 -65
25 -62 28 22 22 474 27 495 6z"/>
</g>
</svg>
