<?xml version="1.0" standalone="no"?>
<!DOCTYPE svg PUBLIC "-//W3C//DTD SVG 20010904//EN"
 "http://www.w3.org/TR/2001/REC-SVG-20010904/DTD/svg10.dtd">
<svg version="1.0" xmlns="http://www.w3.org/2000/svg"
 width="1024.000000pt" height="1024.000000pt" viewBox="0 0 1024.000000 1024.000000"
 preserveAspectRatio="xMidYMid meet">

<g transform="translate(0.000000,1024.000000) scale(0.100000,-0.100000)"
fill="#000000" stroke="none">
<path d="M4502 9444 c-823 -105 -1503 -523 -1952 -1196 -183 -276 -324 -618
-388 -943 -61 -307 -54 -706 16 -957 18 -63 18 -69 3 -95 -37 -62 -121 -265
-159 -384 -141 -441 -136 -811 14 -1084 l35 -63 -21 -118 c-17 -96 -41 -399
-38 -464 1 -8 0 -34 0 -58 l-2 -42 -162 -79 c-197 -95 -291 -132 -456 -177
-70 -19 -130 -38 -134 -42 -12 -12 46 -166 92 -244 108 -184 324 -425 495
-555 211 -159 515 -328 726 -404 70 -25 103 -44 143 -79 28 -26 82 -70 119
-98 l68 -51 -49 -54 c-119 -132 -238 -362 -267 -521 l-6 -32 -142 -23 c-237
-39 -472 -110 -565 -170 -64 -41 -83 -81 -56 -118 42 -56 257 -110 583 -148
125 -14 182 -14 115 0 -62 13 -160 49 -186 67 -33 23 -36 57 -9 82 25 23 97
44 177 52 63 7 64 6 64 -17 0 -35 43 -120 76 -151 56 -52 86 -58 291 -57 103
0 212 4 242 8 l55 8 50 -52 c66 -67 145 -99 228 -92 71 6 167 56 213 110 l34
40 89 -12 c131 -16 417 -14 478 4 40 12 149 15 628 15 l579 1 28 -27 c21 -20
46 -30 106 -40 233 -42 509 -86 668 -109 99 -14 280 -44 403 -67 l222 -42 128
17 c70 10 242 36 382 57 140 22 408 63 595 91 502 75 536 82 590 119 147 101
235 290 235 505 0 219 -59 369 -196 500 l-63 60 9 40 c26 110 3 294 -50 402
l-31 62 45 41 c76 70 107 180 86 302 -22 127 -94 198 -221 220 -35 6 -65 12
-67 13 -2 2 3 14 12 27 43 65 60 260 32 363 -7 28 -25 77 -40 109 -14 33 -25
60 -24 61 2 1 28 10 58 20 142 45 239 126 281 233 31 78 39 341 15 490 -29
184 -74 259 -185 311 -54 25 -64 26 -272 29 l-216 4 0 146 c0 184 -26 293
-108 458 -117 238 -253 376 -537 546 -65 39 -118 71 -118 72 0 0 9 24 19 52
30 77 61 254 72 409 10 138 11 140 40 163 16 13 40 43 52 65 20 39 22 54 21
215 -1 165 -2 174 -24 197 -12 13 -35 27 -51 30 -19 4 -31 14 -33 28 -3 12
-12 58 -21 102 -40 197 -172 519 -295 720 -77 126 -213 298 -335 424 -429 441
-966 704 -1590 776 -159 18 -498 18 -643 -1z m743 -263 c248 -44 459 -112 670
-216 234 -115 391 -224 578 -405 197 -189 360 -404 447 -585 58 -121 58 -139
0 -50 -54 82 -97 135 -112 135 -5 0 -32 19 -61 42 -29 22 -84 56 -122 74 -128
59 -337 69 -509 25 -44 -12 -81 -19 -83 -17 -8 7 160 68 227 82 127 27 311 11
378 -32 12 -8 22 -11 21 -7 -1 9 -108 102 -243 211 -111 89 -132 112 -114 123
9 6 9 9 1 9 -6 0 -47 26 -90 59 -152 114 -426 264 -583 319 -101 35 -401 106
-520 123 -116 16 -405 16 -520 1 -112 -16 -321 -62 -437 -97 -211 -65 -477
-194 -658 -320 -157 -109 -397 -338 -510 -485 -191 -251 -349 -573 -416 -852
l-23 -97 -57 -25 c-81 -36 -109 -42 -109 -23 0 39 44 241 76 343 116 386 308
699 600 985 146 143 226 208 369 301 275 180 558 295 895 362 195 39 267 45
535 41 200 -2 274 -7 370 -24z m-447 -167 c4 -25 -38 -46 -96 -48 -35 -1 -37
1 -40 31 -4 37 7 42 83 40 43 -2 50 -5 53 -23z m-202 -31 c-10 -10 -19 5 -10
18 6 11 8 11 12 0 2 -7 1 -15 -2 -18z m-518 -129 c34 -23 29 -69 -11 -109 -62
-62 -169 -72 -204 -18 -16 24 -16 27 3 61 36 67 157 105 212 66z m1822 -83
c65 -34 63 -101 -2 -101 -39 0 -105 35 -113 59 -17 56 46 79 115 42z m255
-150 c74 -34 107 -89 73 -121 -26 -24 -59 -25 -104 -4 -78 37 -103 85 -64 124
25 25 44 25 95 1z m-1665 -584 c116 -35 191 -69 285 -132 144 -96 286 -253
363 -405 40 -76 88 -198 81 -204 -2 -1 -37 -14 -76 -28 l-73 -25 -24 42 c-14
23 -35 49 -48 57 -60 39 -271 88 -463 108 -263 27 -907 21 -1160 -10 -38 -5
-71 -7 -73 -6 -5 6 77 155 120 219 118 174 286 295 498 360 169 52 200 56 360
52 97 -3 144 -9 210 -28z m1995 -39 c192 -42 379 -205 490 -427 20 -39 42 -88
49 -109 l13 -37 -361 0 c-380 -1 -490 -10 -684 -55 -106 -25 -139 -43 -159
-85 -19 -39 -21 -40 -66 -22 -18 8 -56 20 -84 26 -63 15 -64 20 -28 122 61
177 192 367 317 461 173 132 321 168 513 126z m-1920 -638 c181 -13 329 -37
382 -62 38 -18 45 -26 59 -74 8 -29 14 -70 12 -91 -3 -36 -4 -34 -21 32 -25
97 -36 111 -94 118 -26 4 -94 13 -151 22 -166 24 -497 38 -742 31 -309 -9
-572 -26 -587 -38 -10 -8 -13 -4 -13 15 0 31 13 35 175 46 162 12 818 12 980
1z m2685 -40 c109 -14 120 -17 120 -42 0 -18 -4 -19 -47 -14 -295 38 -804 48
-1089 21 -203 -19 -317 -35 -328 -46 -5 -4 -17 -43 -27 -86 -17 -76 -17 -77
-18 -30 -1 63 17 136 38 146 26 14 227 50 331 60 122 12 908 5 1020 -9z
m-3943 -22 c-3 -13 -9 -50 -13 -84 l-6 -61 -122 -28 c-271 -62 -690 -205 -732
-250 -14 -15 -27 -25 -30 -22 -3 2 -2 41 2 86 l7 82 38 19 c136 70 746 269
853 279 4 1 6 -9 3 -21z m278 -68 c0 -18 -53 -26 -69 -10 -8 8 -7 13 4 21 22
14 65 7 65 -11z m1981 -19 c106 -22 156 -44 147 -66 -3 -10 -9 -12 -17 -7 -6
5 -42 20 -81 33 -131 45 -279 30 -427 -41 l-38 -18 0 22 c0 27 40 48 135 70
124 30 163 31 281 7z m1719 -26 c0 -5 -19 -11 -42 -13 -36 -3 -43 0 -43 16 0
16 6 18 43 13 23 -3 42 -10 42 -16z m-2760 -4 c144 -11 194 -23 235 -57 51
-43 63 -78 62 -176 -1 -154 -62 -381 -119 -440 -60 -62 -272 -95 -542 -84
-275 11 -376 39 -419 115 -31 54 -65 187 -66 256 0 42 6 73 21 105 11 25 24
69 27 98 11 109 61 154 188 171 153 20 422 26 613 12z m-930 -21 c-3 -5 -12
-10 -18 -10 -7 0 -6 4 3 10 19 12 23 12 15 0z m3211 -11 c169 -17 213 -49 226
-163 3 -34 12 -86 18 -116 21 -100 -23 -302 -82 -374 -22 -27 -45 -41 -96 -56
-121 -38 -515 -44 -642 -10 -33 9 -39 17 -97 142 -71 152 -93 231 -93 338 0
142 34 199 131 219 144 30 443 39 635 20z m-3234 -24 c-4 -13 -63 -8 -77 6 -7
7 4 9 35 7 25 -2 44 -7 42 -13z m3728 -14 c0 -20 -31 -32 -77 -29 -36 2 -49 7
-51 21 -3 15 5 17 62 17 36 0 66 -4 66 -9z m-3909 -213 c63 -49 78 -75 89
-158 16 -113 37 -188 75 -265 61 -126 125 -171 292 -208 87 -19 130 -21 373
-21 261 -1 281 1 400 26 101 22 126 25 132 14 50 -89 183 -223 299 -301 112
-75 296 -145 382 -145 45 0 157 35 228 71 119 60 254 191 335 326 7 10 23 18
41 19 16 0 35 4 41 8 7 4 49 -1 95 -11 116 -25 589 -26 688 -1 111 28 178 58
214 95 l34 35 -19 -68 c-17 -62 -39 -127 -100 -289 l-18 -50 -64 -6 c-35 -4
-122 -7 -195 -8 -280 -2 -458 -78 -557 -238 -23 -37 -31 -42 -73 -48 -600 -77
-1134 -271 -1608 -584 l-90 -59 -49 56 c-150 172 -342 322 -620 484 -105 61
-245 132 -313 159 -13 5 -23 15 -23 23 0 16 39 138 61 192 12 30 10 34 -28 80
-156 190 -259 489 -264 769 l-2 110 74 11 c117 17 124 17 170 -18z m2306 -8
c74 -37 212 -170 262 -253 52 -88 82 -172 88 -247 l6 -69 -29 9 c-466 146
-507 157 -643 166 -94 6 -340 -9 -413 -25 -21 -5 -38 -7 -38 -4 0 11 84 129
128 182 70 82 167 157 268 208 163 81 255 89 371 33z m-2820 -46 c-3 -3 -12
-4 -19 -1 -8 3 -5 6 6 6 11 1 17 -2 13 -5z m-82 -24 c-11 -5 -27 -9 -35 -9 -9
0 -8 4 5 9 11 5 27 9 35 9 9 0 8 -4 -5 -9z m-130 -40 c-27 -12 -43 -12 -25 0
8 5 22 9 30 9 10 0 8 -3 -5 -9z m-195 -254 c0 -95 2 -195 5 -222 l5 -49 -15
45 c-25 73 -54 230 -57 304 -3 66 -2 71 22 83 14 7 28 13 33 13 4 0 7 -78 7
-174z m2595 -226 c50 -49 225 -168 302 -207 118 -58 181 -50 300 38 57 43 65
46 57 24 -4 -8 -1 -15 5 -15 6 0 11 -3 11 -7 0 -14 -136 -102 -189 -123 -53
-20 -117 -27 -123 -12 -1 5 -39 27 -83 50 -75 39 -197 124 -256 179 -28 26
-75 103 -63 103 5 0 22 -13 39 -30z m2348 -387 c140 -94 235 -198 297 -327 69
-144 74 -178 11 -85 -65 97 -190 204 -284 244 -34 14 -34 14 -163 -66 -139
-87 -332 -188 -429 -225 -33 -12 -78 -30 -100 -38 l-40 -16 35 30 c35 31 78
61 320 227 156 107 228 168 236 198 8 32 -26 93 -80 143 -25 23 -46 45 -46 47
0 11 151 -71 243 -132z m-4373 -181 c102 -42 264 -115 360 -163 420 -207 697
-408 911 -664 l34 -40 -45 37 c-112 92 -282 194 -580 346 -517 264 -603 313
-890 510 -41 28 -88 63 -105 76 l-30 25 80 -25 c44 -14 163 -60 265 -102z
m4092 122 l45 -6 -151 -102 -151 -102 -36 22 c-157 97 -340 48 -437 -116 -24
-40 -27 -55 -27 -141 0 -86 3 -101 30 -154 53 -103 161 -165 287 -165 34 0 77
5 98 11 34 11 40 9 86 -24 79 -56 162 -99 176 -91 10 5 10 4 2 -5 -20 -22 -85
-31 -224 -30 -239 0 -320 19 -413 96 -59 49 -79 82 -113 176 l-25 72 5 -70 c9
-138 76 -249 179 -298 47 -23 47 -28 0 -15 -57 15 -100 45 -138 95 -60 78 -76
138 -87 322 -14 249 5 326 101 413 73 66 166 98 306 108 144 9 430 12 487 4z
m-402 -257 c23 -9 21 -10 -30 -21 -30 -6 -61 -15 -69 -20 -9 -6 -12 -5 -9 5 3
8 18 17 34 21 27 6 27 6 -6 5 -31 -2 -40 -9 -87 -77 -53 -76 -66 -103 -38 -80
21 18 19 3 -5 -27 -19 -25 -19 -25 0 -76 11 -29 20 -53 20 -54 0 -1 24 -18 52
-38 63 -42 42 -48 -23 -7 -56 37 -78 61 -95 109 -61 174 88 326 256 260z
m-600 -45 c0 -4 -55 -20 -122 -35 -151 -33 -459 -129 -631 -196 -199 -79 -595
-272 -806 -393 -78 -45 -85 -47 -97 -30 -7 9 -14 22 -14 28 -1 29 612 338 855
431 293 112 815 237 815 195z m-66 -105 c3 -12 8 -68 12 -122 4 -63 11 -104
19 -111 8 -5 18 -44 25 -85 6 -40 13 -91 17 -111 6 -37 5 -38 -27 -38 -32 0
-32 0 -29 44 2 24 1 42 -3 40 -8 -5 -23 94 -40 269 -13 127 -12 137 3 137 9 0
19 -10 23 -23z m-90 -54 c42 -350 42 -340 21 -340 -8 0 -38 -10 -65 -23 -47
-22 -50 -26 -49 -59 0 -22 3 -30 7 -20 5 11 19 15 49 14 24 -1 45 -4 49 -7 5
-6 -80 -38 -101 -38 -7 0 -22 35 -35 78 -13 42 -34 113 -47 157 -14 44 -33
117 -43 163 -18 81 -18 83 1 93 23 12 23 12 38 -91 18 -118 29 -150 51 -150
10 0 21 4 24 9 3 4 -5 63 -18 130 -19 97 -21 121 -10 121 8 0 17 1 21 3 6 2
41 -179 42 -220 1 -7 12 -13 26 -13 30 0 31 10 10 125 -20 108 -19 125 4 125
15 0 20 -11 25 -57z m-3847 25 c-3 -8 -6 -5 -6 6 -1 11 2 17 5 13 3 -3 4 -12
1 -19z m25 -98 c11 -38 59 -147 85 -195 19 -35 101 -118 129 -130 10 -4 26 -7
33 -6 13 2 13 0 2 -13 -8 -10 -9 -16 -3 -16 6 0 27 -11 47 -24 20 -14 42 -24
48 -22 7 1 9 1 5 -1 -13 -8 4 -33 23 -33 10 0 19 -4 19 -9 0 -8 57 -23 95 -25
23 -2 74 -29 69 -37 -3 -5 5 -9 16 -9 12 0 68 -14 123 -32 87 -27 98 -33 77
-40 -23 -7 -23 -7 4 -4 16 2 95 -7 175 -19 80 -13 189 -26 241 -30 57 -4 105
-13 119 -22 13 -8 35 -13 50 -10 14 3 37 7 51 10 14 3 70 10 125 17 204 24
437 77 566 130 38 15 69 26 69 24 0 -2 -20 -15 -45 -29 -62 -37 -247 -98 -395
-131 -120 -27 -137 -28 -395 -28 -254 0 -279 1 -415 27 -495 95 -847 333 -925
627 -8 30 -14 69 -14 85 2 27 2 27 6 5 2 -14 9 -41 15 -60z m3561 -32 c10 -51
25 -110 34 -133 18 -50 73 -236 73 -251 0 -5 -32 -24 -70 -41 -63 -28 -71 -30
-79 -15 -11 22 -46 160 -61 237 -6 33 -20 102 -32 153 -14 65 -18 96 -10 104
19 19 29 -1 57 -117 28 -113 29 -116 54 -113 32 4 32 12 -3 143 -25 93 -25
101 -9 113 9 6 19 12 22 12 3 0 14 -41 24 -92z m1216 -33 c22 -22 -103 43
-134 70 -36 31 -31 30 44 -15 47 -28 87 -53 90 -55z m-1354 -225 c19 -85 39
-170 46 -188 6 -18 10 -34 8 -35 -68 -37 -175 -85 -177 -79 -2 4 -43 117 -91
252 -77 216 -85 246 -72 257 14 10 22 -3 58 -95 23 -59 43 -112 43 -119 0 -18
19 -26 34 -14 16 13 11 44 -30 171 -21 67 -23 84 -12 91 7 5 16 9 19 9 3 0 24
-54 45 -120 30 -94 42 -120 56 -120 13 0 18 8 18 26 0 28 -35 176 -50 211 -7
17 -5 25 8 32 15 8 20 0 40 -57 13 -37 38 -137 57 -222z m1437 195 c140 -55
320 -84 527 -86 115 -1 128 -3 86 -11 -143 -26 -478 25 -637 97 -69 31 -55 32
24 0z m-1756 -115 c39 -96 145 -402 142 -411 -3 -8 -159 -92 -163 -87 -1 2
-21 59 -45 127 -38 111 -41 125 -26 133 9 5 16 14 16 19 0 6 -20 63 -45 127
-42 107 -45 117 -29 131 9 9 18 12 21 6 2 -5 23 -59 46 -120 39 -99 46 -110
67 -110 22 0 25 4 22 30 -2 17 -22 75 -44 130 -38 94 -39 100 -21 112 15 12
19 11 25 -4 4 -10 19 -47 34 -83z m-169 -127 c41 -101 44 -114 30 -127 -17
-18 -12 -40 38 -171 14 -38 29 -77 31 -86 5 -15 -46 -48 -138 -91 l-37 -17
-17 47 c-38 103 -94 241 -129 317 -67 147 -66 144 -45 155 16 9 23 4 44 -32
13 -24 36 -78 51 -120 21 -60 32 -78 47 -78 33 0 30 26 -17 146 -42 109 -45
119 -29 131 9 7 20 10 25 8 4 -3 27 -59 51 -125 38 -106 45 -119 63 -114 39
12 39 23 -8 133 -26 61 -47 116 -47 122 0 18 34 41 38 26 2 -7 24 -62 49 -124z
m930 5 c-3 -7 -5 -2 -5 12 0 14 2 19 5 13 2 -7 2 -19 0 -25z m-1240 -76 c17
-31 57 -122 89 -202 31 -80 67 -166 80 -192 l24 -48 -80 -40 c-44 -22 -83 -40
-87 -41 -10 -1 -50 104 -85 221 -17 58 -46 144 -65 193 -29 71 -33 90 -23 102
7 8 15 15 19 15 6 0 58 -111 95 -203 14 -34 18 -37 36 -27 29 16 25 37 -27
156 -37 86 -43 108 -32 115 22 13 22 13 56 -49z m1823 -21 c0 -5 -9 -7 -20 -4
-11 3 -20 7 -20 9 0 2 9 4 20 4 11 0 20 -4 20 -9z m1901 -26 c33 -30 56 -91
68 -178 14 -102 15 -99 -11 -95 -18 3 -22 10 -23 53 -3 56 -41 150 -73 179
-20 18 -23 18 -57 2 -31 -15 -79 -17 -427 -15 -298 1 -388 4 -374 13 10 6 33
21 51 33 18 11 41 24 52 26 10 3 188 5 395 3 359 -2 378 -3 399 -21z m-3878
-143 c91 -233 129 -354 114 -364 -28 -18 -190 -77 -198 -72 -5 3 -9 10 -9 16
0 5 -25 78 -55 161 -42 114 -52 153 -43 159 9 5 20 -7 36 -37 15 -30 29 -45
42 -45 32 0 32 34 0 115 -48 120 -29 135 30 23 49 -94 65 -111 81 -87 11 19 6
37 -48 151 -39 81 -44 100 -33 113 7 8 15 15 19 15 3 0 32 -67 64 -148z m1377
48 c-7 -18 -11 -55 -8 -91 4 -55 8 -65 37 -91 26 -23 41 -29 71 -27 75 6 123
-74 124 -202 0 -65 -5 -86 -30 -135 l-29 -59 -58 -5 c-51 -5 -63 -10 -88 -38
-16 -18 -29 -43 -29 -57 0 -23 -4 -25 -42 -25 -112 -1 -200 -120 -154 -208 19
-37 48 -62 82 -70 21 -6 36 -21 52 -52 27 -54 28 -111 3 -167 -16 -35 -26 -44
-60 -53 -69 -18 -108 -107 -76 -174 23 -48 72 -77 144 -83 l59 -6 4 -165 4
-165 -53 -50 c-59 -56 -93 -109 -116 -182 -24 -78 -40 -200 -34 -253 l6 -49
-117 -42 c-266 -95 -506 -134 -817 -134 -271 1 -456 28 -664 99 -410 139 -731
425 -930 829 -121 244 -185 481 -214 789 l-5 48 60 -6 c33 -4 173 -7 312 -7
306 0 481 20 754 86 366 89 630 193 1012 400 211 114 452 239 552 286 95 44
250 100 257 94 2 -2 -2 -18 -9 -35z m2146 -9 c86 -39 160 -176 152 -282 -3
-39 -6 -44 -28 -44 -23 0 -26 5 -31 53 -8 60 -47 148 -82 180 -21 20 -57 33
-94 35 -7 0 -13 4 -13 10 0 5 -6 7 -12 4 -7 -2 -21 0 -30 5 -11 5 -18 5 -18
-1 0 -8 45 -24 74 -25 5 -1 15 -12 23 -26 14 -23 14 -24 -1 -6 -9 11 -16 17
-16 13 0 -3 -17 1 -37 10 -21 8 -60 19 -88 23 -46 7 -47 8 -13 9 27 1 36 5 32
15 -4 11 -57 12 -295 8 -211 -3 -289 -2 -289 7 0 7 37 11 118 12 233 1 536 9
541 14 10 11 69 3 107 -14z m146 9 c32 -9 41 -19 68 -73 45 -92 69 -267 36
-267 -10 0 -17 16 -22 48 -8 54 -65 194 -91 226 -17 20 -17 20 0 6 20 -15 51
-71 72 -129 10 -25 14 -30 14 -15 2 40 -84 184 -110 184 -8 0 -24 7 -35 15
-18 14 -18 14 6 15 14 0 42 -5 62 -10z m-1927 -20 c19 -5 -14 -8 -92 -9 -107
-1 -122 -3 -126 -18 -3 -11 -5 -7 -6 10 l-1 27 98 -1 c53 -1 111 -5 127 -9z
m130 -36 c47 -12 47 -13 10 -9 -22 3 -98 6 -170 7 l-130 2 105 6 c58 3 112 7
120 7 8 1 38 -5 65 -13z m1265 7 c29 -6 -35 -9 -180 -9 -124 0 -234 3 -245 8
-26 11 363 11 425 1z m381 -68 l24 -27 -32 23 c-33 23 -40 31 -25 31 5 0 19
-12 33 -27z m39 -59 c0 -8 5 -14 10 -14 6 0 10 -4 10 -10 0 -19 -17 -10 -28
15 -15 32 -15 38 -2 30 6 -3 10 -13 10 -21z m-134 -41 c27 -27 44 -78 44 -133
l0 -50 -362 -1 c-200 -1 -349 -5 -333 -9 17 -4 -73 -8 -201 -8 -186 -1 -439
-15 -452 -26 -3 -4 844 -16 1105 -16 149 0 233 -4 233 -10 0 -6 -61 -10 -162
-10 -90 0 -329 -7 -533 -15 -203 -8 -451 -15 -550 -16 -99 -2 -163 -4 -142 -6
40 -5 51 -22 15 -24 -15 -1 -10 -4 12 -8 20 -4 323 -8 675 -9 351 -2 641 -4
643 -6 11 -12 -723 -36 -1085 -36 -144 0 -268 -3 -277 -6 -32 -12 -15 -23 42
-26 31 -2 -36 -7 -149 -11 -230 -10 -304 -4 -293 22 51 122 58 243 19 347 -14
36 -25 68 -25 70 0 2 396 4 879 4 817 0 881 -1 897 -17z m-3595 -173 c29 -83
37 -115 28 -121 -24 -14 -199 -62 -206 -56 -3 4 -16 45 -29 93 -18 65 -20 83
-8 74 11 -10 25 -4 70 31 31 24 63 58 72 76 9 19 20 29 24 25 5 -5 27 -60 49
-122z m3749 71 c0 -45 -6 -37 -14 19 -4 31 -3 40 4 30 5 -8 10 -30 10 -49z
m375 49 c3 -6 -1 -7 -9 -4 -18 7 -21 14 -7 14 6 0 13 -4 16 -10z m-4259 -77
c-16 -14 -40 -23 -59 -23 -24 0 -28 3 -17 10 8 5 21 10 28 10 7 0 19 6 27 13
7 8 21 14 31 14 14 0 12 -5 -10 -24z m-1929 -241 l40 -60 6 -273 c3 -151 11
-305 17 -343 6 -38 8 -71 6 -74 -3 -2 -13 22 -22 54 -10 33 -19 52 -21 43 -6
-26 85 -380 123 -482 18 -50 32 -93 30 -95 -9 -8 -152 291 -183 383 -39 116
-77 270 -99 405 -16 98 -22 497 -8 587 l6 44 33 -65 c18 -35 50 -91 72 -124z
m1809 88 c13 -41 24 -78 24 -81 0 -4 -12 -9 -27 -13 -16 -3 -65 -14 -111 -25
l-82 -19 -15 52 c-8 28 -15 64 -17 81 -3 29 -2 30 92 56 52 15 99 26 104 25 4
-1 19 -35 32 -76z m-1499 54 c-3 -3 -12 -4 -19 -1 -8 3 -5 6 6 6 11 1 17 -2
13 -5z m93 -24 c0 -5 -7 -7 -15 -4 -8 4 -15 8 -15 10 0 2 7 4 15 4 8 0 15 -4
15 -10z m1045 -17 c-22 -8 -57 -18 -78 -20 -27 -4 -37 -9 -33 -19 7 -19 -8
-18 -24 1 -17 21 -14 23 61 39 91 20 126 20 74 -1z m90 -84 c10 -39 16 -72 13
-74 -2 -2 -45 -10 -94 -16 -95 -13 -131 -9 -117 13 4 7 6 20 5 28 -2 10 6 16
18 17 13 1 20 -4 20 -15 1 -11 22 6 61 48 44 47 59 70 55 85 -5 19 -4 19 9 2
7 -10 21 -50 30 -88z m4635 40 c0 -8 -14 -28 -32 -45 -24 -23 -29 -25 -23 -9
4 11 12 39 18 62 9 38 12 41 23 25 7 -9 14 -24 14 -33z m-4916 -52 c24 -105
31 -98 -86 -95 l-102 3 -13 60 c-20 96 -20 95 35 96 26 0 67 4 92 8 25 4 48 5
52 2 4 -3 14 -37 22 -74z m-526 -6 c3 -71 -3 -80 -51 -73 -27 4 -29 6 -12 12
20 8 20 8 0 15 -11 3 -28 11 -38 16 -11 6 -24 6 -37 -1 -28 -15 -30 -13 -26
22 3 33 25 48 60 42 11 -1 26 6 34 17 9 13 23 19 40 17 26 -3 27 -6 30 -67z
m-201 27 c-3 -7 -5 -2 -5 12 0 14 2 19 5 13 2 -7 2 -19 0 -25z m463 5 c0 -10
3 -42 6 -70 l7 -53 -86 0 c-47 0 -89 5 -92 10 -3 6 -2 10 4 10 5 0 22 19 38
41 41 60 123 101 123 62z m-533 -30 c-3 -10 -5 -4 -5 12 0 17 2 24 5 18 2 -7
2 -21 0 -30z m5509 -80 c-31 -61 -53 -90 -61 -81 -7 7 39 104 63 131 26 30 25
3 -2 -50z m-5502 40 c3 -7 4 -13 3 -13 -1 0 -20 7 -42 15 l-40 15 37 -2 c21
-1 40 -8 42 -15z m86 7 c0 -5 -2 -10 -4 -10 -3 0 -8 5 -11 10 -3 6 -1 10 4 10
6 0 11 -4 11 -10z m53 -27 c-7 -2 -21 -2 -30 0 -10 3 -4 5 12 5 17 0 24 -2 18
-5z m5234 -46 c-15 -24 -38 -52 -52 -61 -41 -27 -41 -12 -1 21 20 15 36 34 36
41 0 6 4 12 9 12 5 0 11 10 14 22 4 12 9 19 13 16 3 -4 -5 -27 -19 -51z
m-1689 -16 c25 -15 -28 -21 -210 -21 -157 0 -215 8 -176 23 22 9 372 7 386 -2z
m1394 -6 c-21 -12 -1180 -20 -1232 -8 -56 13 157 18 732 18 349 0 511 -3 500
-10z m-1667 -145 c132 -6 422 -11 645 -11 416 -2 427 -4 160 -34 -122 -14
-148 -20 -163 -37 -15 -18 -25 -20 -67 -15 -28 3 -65 13 -82 21 -58 27 -514
47 -588 26 -21 -6 -82 -8 -152 -4 -113 7 -118 8 -118 29 0 41 -12 40 365 25z
m1977 -71 c51 -78 63 -250 19 -262 -13 -3 -17 1 -16 17 1 12 -5 26 -14 33 -14
11 -14 12 -1 13 11 0 10 3 -4 11 -15 9 -16 13 -5 20 12 7 11 19 -4 76 -10 37
-24 79 -31 94 -28 56 20 54 56 -2z m-1542 -9 c8 -5 11 -10 5 -10 -5 0 -17 5
-25 10 -8 5 -10 10 -5 10 6 0 17 -5 25 -10z m1399 -76 c13 -34 21 -79 21 -117
0 -74 -33 -184 -58 -191 -9 -3 -132 -14 -272 -26 -140 -11 -300 -25 -355 -30
-370 -37 -436 -40 -595 -25 -393 35 -835 77 -838 79 -1 2 9 27 23 57 14 30 25
68 25 86 0 31 1 32 38 27 28 -4 33 -3 22 5 -8 6 -25 11 -37 11 -14 0 -23 6
-23 15 0 9 -11 42 -24 75 l-25 60 42 0 c23 0 92 -4 152 -10 282 -24 746 -41
818 -31 124 19 410 41 731 56 170 8 311 16 314 19 10 11 21 -5 41 -60z m-6059
-3 c0 -32 -5 -43 -27 -59 -25 -17 -131 -60 -188 -76 -46 -13 -174 -25 -198
-18 -23 6 -14 11 62 35 49 15 144 57 212 91 68 35 127 64 132 65 4 0 7 -17 7
-38z m6158 -134 c0 -59 2 -111 6 -114 3 -3 12 9 20 28 9 20 15 27 16 16 0 -10
-11 -29 -24 -42 -13 -13 -21 -27 -18 -30 4 -3 2 -9 -3 -13 -6 -4 -17 -20 -25
-37 -12 -24 -23 -30 -50 -32 -34 -2 -34 -1 -9 9 55 23 84 126 76 266 -3 57 -1
89 4 77 4 -11 8 -69 7 -128z m41 -176 c-6 -16 -22 -39 -36 -52 l-25 -24 28 52
c32 57 49 70 33 24z m-282 -47 c-3 -3 -12 -4 -19 -1 -8 3 -5 6 6 6 11 1 17 -2
13 -5z m102 2 c-11 -9 -69 -14 -69 -6 0 6 17 10 37 10 20 0 34 -2 32 -4z
m-204 -17 c-85 -14 -398 -49 -437 -49 -23 0 -38 -5 -42 -15 -3 -8 -11 -15 -18
-15 -9 0 -8 3 2 10 10 7 -5 9 -50 9 -48 -1 -57 -3 -35 -8 26 -6 27 -8 10 -13
-48 -15 -96 -18 -115 -8 -11 6 -20 7 -20 2 0 -11 -9 -13 -116 -16 -50 -2 -99
-8 -110 -14 -13 -6 -44 -5 -99 4 -44 7 -98 13 -120 14 -33 1 -36 3 -20 11 13
6 -11 8 -75 5 -83 -3 -137 0 -255 18 -16 2 -57 5 -90 6 -43 1 -54 4 -40 10 13
6 -14 8 -75 8 -56 -1 -105 4 -118 11 -14 7 -22 8 -22 1 0 -15 -73 -12 -96 4
-18 14 -18 15 -1 22 10 4 98 -1 195 -10 185 -17 661 -54 747 -57 47 -2 698 52
850 70 39 5 99 8 135 8 l65 0 -50 -8z m-6010 -109 c38 -38 67 -70 64 -70 -2 0
-36 32 -74 70 -38 39 -67 70 -64 70 2 0 36 -31 74 -70z m5708 53 c-7 -2 -19
-2 -25 0 -7 3 -2 5 12 5 14 0 19 -2 13 -5z m-905 -40 c-10 -2 -28 -2 -40 0
-13 2 -5 4 17 4 22 1 32 -1 23 -4z m1849 -67 c22 -26 40 -97 28 -116 -3 -5
-37 -10 -76 -10 -62 0 -69 2 -69 20 0 36 -17 21 -24 -20 -5 -35 -10 -40 -34
-41 -17 -1 -20 -3 -9 -6 27 -7 20 -18 -13 -20 -29 -2 -29 -1 -36 57 -7 67 -21
79 -26 23 l-3 -38 -107 -3 c-107 -3 -108 -2 -108 20 0 23 0 23 -13 -2 -11 -21
-20 -25 -57 -25 -41 0 -44 2 -54 35 l-9 35 -7 -42 c-8 -51 -11 -55 -50 -58
-29 -3 -30 -1 -30 41 0 54 -18 68 -22 17 l-3 -38 -90 -7 c-49 -3 -132 -8 -182
-10 l-93 -4 0 34 c0 19 -4 31 -10 27 -5 -3 -10 -19 -10 -35 0 -31 -14 -40 -65
-40 -34 0 -34 1 -41 50 -9 65 -34 70 -26 5 5 -49 -8 -75 -38 -75 -10 0 -21 -6
-23 -12 -3 -7 -6 12 -7 42 -1 52 -26 143 -30 110 -5 -43 -6 -59 -8 -100 l-2
-45 -37 0 c-38 1 -38 1 -41 45 -1 25 -5 55 -7 68 -9 40 -25 13 -25 -42 0 -52
-1 -54 -31 -60 -57 -11 -59 -10 -59 45 0 31 -4 48 -10 44 -5 -3 -10 -21 -10
-39 0 -50 -20 -82 -49 -78 -51 8 -67 -5 -86 -67 -10 -34 -29 -71 -45 -86 l-27
-25 -64 19 c-35 11 -165 45 -289 76 -124 31 -229 60 -234 65 -16 16 -1 21 30
11 16 -5 112 -28 214 -51 102 -23 216 -51 253 -62 38 -11 75 -17 82 -14 32 12
47 218 18 247 -6 6 -57 19 -114 29 -128 22 -432 90 -439 97 -3 3 15 3 40 -1
25 -3 137 -15 250 -26 113 -12 229 -25 259 -30 107 -19 179 -15 1136 59 143
12 314 25 380 30 170 13 225 8 252 -23z m-6552 -37 c4 -6 41 -35 84 -66 78
-57 109 -83 81 -68 -54 30 -197 145 -181 145 5 0 13 -5 16 -11z m4302 -55 c-3
-3 -12 -4 -19 -1 -8 3 -5 6 6 6 11 1 17 -2 13 -5z m143 -29 c158 -41 197 -54
170 -54 -14 0 -88 17 -165 38 -153 43 -157 56 -5 16z m-110 -6 c47 -11 101
-24 120 -29 19 -5 64 -16 100 -25 36 -9 67 -19 70 -22 8 -8 -123 9 -150 20
-14 5 -52 15 -85 23 -104 23 -155 38 -155 46 0 11 3 10 100 -13z m0 -38 c19
-5 82 -21 140 -35 58 -14 114 -28 125 -30 11 -3 0 -3 -25 0 -107 12 -175 16
-170 11 3 -3 25 -7 50 -10 54 -6 169 -39 154 -44 -6 -2 -80 10 -165 28 -85 17
-166 33 -181 36 -19 4 -28 11 -28 24 0 20 15 26 24 10 3 -5 16 -11 28 -14 13
-3 40 -10 60 -15 21 -6 35 -6 32 -1 -3 5 -11 9 -17 9 -20 0 -127 46 -121 53 3
3 18 1 32 -3 15 -5 43 -13 62 -19z m2238 17 c-5 -14 -71 -30 -106 -26 -40 5
-29 23 18 29 77 10 92 10 88 -3z m-293 -28 c-13 -20 -205 -33 -205 -14 0 17
22 22 123 23 54 1 86 -3 82 -9z m-225 -15 c0 -11 -12 -15 -45 -15 -33 0 -45 4
-45 15 0 11 12 15 45 15 33 0 45 -4 45 -15z m-240 -25 c0 -9 -125 -19 -252
-22 -150 -3 -107 9 64 18 90 5 169 9 176 10 6 0 12 -3 12 -6z m-400 -10 c0 -5
-16 -10 -35 -10 -19 0 -35 5 -35 10 0 6 16 10 35 10 19 0 35 -4 35 -10z m-370
-30 c-19 -13 -30 -13 -30 0 0 6 10 10 23 10 18 0 19 -2 7 -10z m205 -90 c-3
-5 -11 -10 -16 -10 -6 0 -7 5 -4 10 3 6 11 10 16 10 6 0 7 -4 4 -10z m-1027
-81 l30 -10 -24 -36 c-36 -54 -65 -157 -71 -255 -6 -86 -6 -88 -31 -88 -14 0
-41 5 -59 12 -32 12 -33 13 -33 71 0 110 44 235 102 289 33 31 41 33 86 17z
m2073 -16 c60 -66 89 -156 89 -280 0 -69 -1 -73 -22 -73 -13 0 -32 -3 -44 -6
-19 -5 -21 0 -28 66 -7 78 -32 163 -75 252 l-27 57 25 4 c52 8 58 7 82 -20z
m137 4 c53 -57 102 -224 88 -301 -6 -29 -11 -36 -30 -36 -21 0 -24 5 -29 68
-8 78 -34 160 -76 238 l-29 54 27 0 c16 0 37 -10 49 -23z m-1875 -67 c99 -23
200 -49 226 -58 33 -13 58 -16 86 -10 22 4 148 16 280 27 363 31 696 60 829
71 117 11 119 11 143 -12 14 -13 33 -39 43 -59 20 -38 41 -137 31 -143 -3 -1
-33 -4 -66 -5 -33 -1 -123 -7 -200 -12 -106 -8 -1362 -23 -1607 -20 -27 1 -38
-3 -38 -13 0 -15 8 -15 625 -2 83 1 164 -1 180 -5 40 -10 364 -18 779 -19 378
0 435 -12 141 -30 -203 -12 -1475 -16 -1634 -5 l-103 8 7 -54 c3 -30 11 -70
16 -89 13 -53 65 -129 96 -141 16 -6 89 -15 163 -19 74 -5 227 -16 339 -24
112 -9 207 -14 211 -11 9 5 560 62 696 71 71 5 103 3 108 -5 5 -7 -1 -11 -16
-11 -13 0 -129 -11 -258 -25 -545 -58 -597 -60 -874 -41 -373 26 -385 28 -422
69 -64 69 -101 228 -84 359 17 132 68 248 107 248 10 0 98 -18 196 -40z m-443
-525 c7 -8 27 -15 46 -15 25 0 38 -7 55 -31 l22 -31 -24 7 c-13 4 -33 15 -43
24 -12 10 -16 11 -12 3 12 -21 -24 0 -51 30 -25 26 -53 98 -52 132 0 11 10 -7
23 -41 13 -35 29 -70 36 -78z m1065 96 l390 -6 -300 -7 c-346 -7 -914 7 -930
23 -7 8 54 9 220 4 127 -4 406 -10 620 -14z m1261 -89 c-39 -35 -57 -32 -36 7
5 11 16 18 24 15 7 -3 19 2 26 11 7 8 16 13 19 9 3 -3 -12 -22 -33 -42z m-172
-13 c-28 -32 -2 -21 33 13 18 18 33 27 33 22 0 -25 -61 -74 -92 -74 -16 0 -16
3 3 38 33 57 33 58 37 39 2 -10 -4 -27 -14 -38z m351 -63 c79 -33 146 -195
136 -330 -1 -15 -4 -16 -16 -6 -8 7 -26 10 -39 8 -22 -4 -24 -1 -34 66 -5 39
-13 80 -17 91 l-8 20 16 -20 c9 -11 17 -34 17 -52 0 -17 5 -35 12 -39 21 -14
-19 151 -55 220 -8 17 -10 18 -19 3 -5 -11 -5 -24 2 -37 6 -11 9 -20 7 -20 -4
0 -67 99 -67 106 0 8 32 4 65 -10z m-2790 -35 c72 -11 141 -24 155 -30 24 -9
23 -10 -11 -10 -32 -1 -157 17 -243 35 -28 6 -29 6 -13 -11 10 -9 24 -14 32
-11 8 3 17 0 21 -6 5 -8 -5 -9 -34 -5 -41 5 -42 5 -71 -46 -47 -84 -71 -167
-71 -252 l0 -76 -30 16 c-26 14 -30 21 -30 59 0 59 14 130 40 198 22 59 93
158 113 158 7 0 71 -9 142 -19z m-2766 -37 c37 -54 111 -115 185 -153 36 -18
66 -37 66 -41 0 -4 -36 -42 -80 -83 -84 -79 -112 -127 -36 -60 24 21 53 39 64
39 20 0 20 -1 2 -26 -25 -35 -138 -142 -177 -169 -65 -44 -205 -111 -233 -111
-38 0 -44 24 -37 138 6 93 41 211 92 312 33 66 114 190 123 190 4 0 18 -16 31
-36z m2848 -20 c-3 -3 -12 -4 -19 -1 -8 3 -5 6 6 6 11 1 17 -2 13 -5z m76 -11
c-7 -2 -19 -2 -25 0 -7 3 -2 5 12 5 14 0 19 -2 13 -5z m737 -48 c173 -19 241
-22 315 -13 l60 8 -32 -17 c-18 -9 -33 -20 -33 -25 0 -4 -18 -11 -40 -14 -22
-4 -42 -10 -45 -14 -2 -4 -71 4 -152 17 -81 12 -166 25 -188 27 -21 2 -41 9
-43 15 -2 6 -18 11 -35 11 -18 1 -43 7 -57 16 -23 14 -21 15 45 9 39 -3 131
-12 205 -20z m1744 -19 c16 -33 33 -109 35 -156 6 -96 -5 -201 -22 -223 -13
-17 -159 -42 -532 -92 -159 -22 -313 -44 -857 -122 -24 -4 -44 -1 -54 8 -10 8
-44 13 -87 14 -40 0 -148 13 -242 28 -93 14 -278 40 -410 57 -336 43 -456 61
-482 71 -16 6 -27 26 -42 76 -11 37 -19 68 -17 70 1 2 27 -1 56 -7 67 -13 135
-13 105 0 -11 5 -33 9 -48 9 -16 1 -26 5 -23 10 8 12 -18 21 -60 21 -23 0 -34
5 -34 15 0 11 17 15 73 17 66 3 69 4 32 11 -22 4 -55 10 -74 13 -33 5 -33 6
-28 45 3 22 13 60 24 85 l18 46 45 -6 c25 -3 113 -14 195 -25 83 -11 218 -27
300 -36 83 -9 268 -32 412 -51 175 -23 269 -32 280 -26 32 17 226 44 1213 165
63 8 136 15 161 16 44 1 48 -1 63 -33z m-3777 -83 c95 -3 173 -8 173 -9 0 -2
-14 -26 -31 -54 l-31 -50 -165 2 -165 3 -23 64 -23 63 45 -6 c26 -3 124 -9
220 -13z m-1269 -32 c18 -6 97 -15 175 -22 78 -6 145 -13 148 -15 4 -2 -2 -41
-11 -86 -10 -46 -23 -108 -30 -139 -13 -68 -101 -222 -135 -237 -33 -15 -62
10 -114 98 -67 112 -91 189 -98 307 -7 115 -7 114 65 94z m754 -47 c16 -23 44
-80 62 -128 18 -47 35 -84 37 -82 2 2 4 -10 5 -27 0 -18 2 -50 4 -72 4 -38 3
-40 -20 -37 -42 4 -225 100 -269 141 -36 33 -41 42 -32 59 6 11 7 23 3 27 -4
5 9 -2 28 -16 28 -19 22 -9 -32 54 -38 43 -68 84 -68 91 0 10 30 16 113 23 61
6 118 10 126 9 7 -1 27 -20 43 -42z m1198 8 c0 -23 -145 -139 -221 -178 -45
-23 -119 -33 -119 -16 1 26 51 138 66 149 11 6 71 21 134 31 141 24 140 24
140 14z m3053 -312 c-6 -22 -58 -29 -65 -9 -3 8 -9 7 -19 -4 -10 -9 -21 -12
-29 -7 -8 5 -17 7 -21 5 -3 -3 -24 -7 -45 -9 -72 -9 -504 -77 -664 -105 -63
-10 -140 -22 -170 -26 -53 -6 -219 -33 -345 -56 -33 -6 -65 -15 -72 -21 -7 -5
-18 -6 -25 -2 -7 5 -44 9 -83 10 -84 1 -301 41 -318 58 -7 7 -28 16 -47 20
-114 24 -252 46 -300 47 -30 0 -66 5 -80 10 -65 22 237 -7 675 -66 152 -21
201 -19 430 15 173 26 444 64 905 126 63 9 149 19 190 24 41 4 78 8 82 9 3 0
4 -8 1 -19z m47 5 c-7 -8 -20 -15 -29 -14 -10 0 -12 2 -3 6 6 2 10 9 6 14 -3
5 5 9 17 9 18 0 19 -2 9 -15z m-373 -81 c-3 -3 -12 -4 -19 -1 -8 3 -5 6 6 6
11 1 17 -2 13 -5z m-4447 -18 c0 -3 -4 -8 -10 -11 -5 -3 -10 -1 -10 4 0 6 5
11 10 11 6 0 10 -2 10 -4z m2673 -33 c-7 -2 -19 -2 -25 0 -7 3 -2 5 12 5 14 0
19 -2 13 -5z m1415 0 c-10 -2 -28 -2 -40 0 -13 2 -5 4 17 4 22 1 32 -1 23 -4z
m-88 -13 c-8 -5 -22 -10 -30 -10 -13 0 -13 1 0 10 8 5 22 10 30 10 13 0 13 -1
0 -10z m-53 -16 c-3 -3 -12 -4 -19 -1 -8 3 -5 6 6 6 11 1 17 -2 13 -5z m-128
-13 c9 -6 -11 -11 -58 -16 -40 -4 -75 -4 -78 -1 -4 3 7 6 23 6 16 0 36 5 44
10 19 12 51 13 69 1z m69 2 c-10 -2 -26 -2 -35 0 -10 3 -2 5 17 5 19 0 27 -2
18 -5z m-353 -53 c-91 -21 -134 -25 -119 -10 5 5 41 14 79 19 112 14 126 11
40 -9z"/>
<path d="M4323 7160 c-102 -21 -195 -96 -239 -193 -25 -53 -29 -74 -29 -152 0
-106 22 -163 91 -232 54 -53 159 -89 231 -78 67 10 144 47 188 90 94 95 126
277 72 407 -48 115 -186 185 -314 158z m188 -76 c36 -18 59 -67 52 -107 -7
-36 -57 -77 -95 -77 -21 0 -40 10 -64 34 -52 52 -44 108 19 146 39 24 49 24
88 4z m-98 -346 c38 -45 2 -118 -58 -118 -33 0 -75 37 -75 66 0 75 85 109 133
52z"/>
<path d="M6245 7119 c-46 -13 -112 -75 -143 -133 -24 -46 -27 -62 -27 -151 0
-90 3 -106 28 -158 52 -104 116 -158 212 -176 93 -17 213 35 267 116 66 100
73 219 22 334 -61 136 -218 209 -359 168z m92 -64 c32 -23 48 -79 33 -116 -14
-33 -55 -59 -93 -59 -58 0 -110 81 -85 134 22 51 100 72 145 41z m55 -352 c37
-33 10 -93 -43 -93 -52 0 -77 53 -42 92 20 22 61 23 85 1z"/>
<path d="M3768 6163 c6 -2 18 -2 25 0 6 3 1 5 -13 5 -14 0 -19 -2 -12 -5z"/>
<path d="M3645 6130 c-3 -6 1 -7 9 -4 18 7 21 14 7 14 -6 0 -13 -4 -16 -10z"/>
<path d="M6800 6035 c0 -10 -8 -27 -17 -37 -16 -18 -16 -18 0 -12 18 6 34 50
23 61 -3 4 -6 -2 -6 -12z"/>
<path d="M4009 5993 c-13 -16 -12 -17 4 -4 9 7 17 15 17 17 0 8 -8 3 -21 -13z"/>
<path d="M3970 5970 c-9 -6 -10 -10 -3 -10 6 0 15 5 18 10 8 12 4 12 -15 0z"/>
<path d="M5058 6513 c7 -3 16 -2 19 1 4 3 -2 6 -13 5 -11 0 -14 -3 -6 -6z"/>
<path d="M2824 4749 c-3 -5 6 -9 20 -9 31 0 34 6 6 13 -11 3 -23 1 -26 -4z"/>
<path d="M3178 4663 c7 -3 16 -2 19 1 4 3 -2 6 -13 5 -11 0 -14 -3 -6 -6z"/>
<path d="M3748 4663 c12 -2 32 -2 45 0 12 2 2 4 -23 4 -25 0 -35 -2 -22 -4z"/>
<path d="M3318 4653 c12 -2 30 -2 40 0 9 3 -1 5 -23 4 -22 0 -30 -2 -17 -4z"/>
<path d="M6525 4551 c33 -3 141 -4 240 0 l180 5 -240 1 c-132 0 -213 -3 -180
-6z"/>
<path d="M6170 3722 c-19 -2 -41 -9 -48 -15 -11 -9 -9 -13 9 -19 51 -19 468
-48 674 -47 l210 2 -137 13 c-76 7 -175 19 -220 28 -134 24 -409 45 -488 38z"/>
<path d="M6143 3563 c9 -2 25 -2 35 0 9 3 1 5 -18 5 -19 0 -27 -2 -17 -5z"/>
<path d="M7033 3543 c9 -2 23 -2 30 0 6 3 -1 5 -18 5 -16 0 -22 -2 -12 -5z"/>
<path d="M6131 3511 c-24 -15 -2 -29 72 -45 127 -28 236 -37 492 -41 186 -3
223 -1 145 5 -58 4 -186 22 -285 39 -99 16 -216 33 -260 36 -44 3 -96 8 -115
10 -19 2 -41 1 -49 -4z"/>
<path d="M5953 3353 c9 -2 25 -2 35 0 9 3 1 5 -18 5 -19 0 -27 -2 -17 -5z"/>
<path d="M8641 1824 c0 -11 3 -14 6 -6 3 7 2 16 -1 19 -3 4 -6 -2 -5 -13z"/>
<path d="M3065 1661 c-3 -5 -1 -12 5 -16 5 -3 10 1 10 9 0 18 -6 21 -15 7z"/>
<path d="M5811 1862 c-19 -14 -7 -28 31 -36 374 -78 1087 -161 1180 -139 l43
11 -65 -1 c-110 0 -414 43 -483 69 -87 33 -187 54 -347 73 -216 27 -342 34
-359 23z"/>
<path d="M7118 1703 c6 -2 18 -2 25 0 6 3 1 5 -13 5 -14 0 -19 -2 -12 -5z"/>
<path d="M5767 1630 c28 -10 71 -30 95 -43 67 -40 109 -47 703 -117 309 -36
391 -44 385 -37 -3 3 -62 13 -130 22 -69 9 -240 40 -380 70 -140 29 -304 61
-363 69 -59 9 -160 25 -223 36 -140 24 -155 24 -87 0z"/>
<path d="M7208 1593 c7 -3 16 -2 19 1 4 3 -2 6 -13 5 -11 0 -14 -3 -6 -6z"/>
<path d="M7030 1580 c-51 -4 -60 -7 -40 -13 15 -5 60 -2 105 6 85 16 56 19
-65 7z"/>
<path d="M6785 1269 c22 -4 49 -8 60 -7 16 0 15 2 -5 8 -14 4 -41 8 -60 8
l-35 0 40 -9z"/>
</g>
</svg>
