<?xml version="1.0" encoding="utf-8"?>
<!-- Generator: Adobe Illustrator 14.0.0, SVG Export Plug-In . SVG Version: 6.00 Build 43363)  -->
<!DOCTYPE svg PUBLIC "-//W3C//DTD SVG 1.1//EN" "http://www.w3.org/Graphics/SVG/1.1/DTD/svg11.dtd">
<svg version="1.1" id="Capa_6" xmlns="http://www.w3.org/2000/svg" xmlns:xlink="http://www.w3.org/1999/xlink" x="0px" y="0px"
	 width="595.28px" height="841.89px" viewBox="0 0 595.28 841.89" enable-background="new 0 0 595.28 841.89" xml:space="preserve">
<path fill="#DE061C" stroke="#000000" stroke-width="2" d="M547.807,103.225c-0.846,4.088-1.235,8.261-1.32,12.433
	c-0.112,5.555,0.297,11.278,1.111,16.769c0.573,3.862,1.342,7.695,2.245,11.493c0.652,2.749,1.114,5.613,0.519,8.416
	c-1.074,5.058-3.937,8.207-8.501,10.444c-2.184,1.072-4.524,1.797-6.9,2.264c-1.525,0.299-3.07,0.488-4.62,0.588
	c-1.482,0.098-3.659-0.379-5.043,0.034c0.004-0.001,16.968-5.078,12.895-12.992c0,0-6.947-15.516-27.684-3.701l-0.473,0.237
	l0.141-0.51c7.562-22.636-9.008-26.437-9.008-26.437c-8.555-2.459-10.239,15.168-10.24,15.172c0.137-1.437-0.754-3.48-0.946-4.953
	c-0.202-1.54-0.317-3.092-0.32-4.647c-0.004-2.421,0.253-4.858,0.88-7.208c1.31-4.912,3.842-8.331,8.595-10.368
	c2.633-1.129,5.532-1.232,8.355-1.126c3.901,0.148,7.81,0.157,11.71-0.03c5.544-0.268,11.238-0.978,16.665-2.167
	C539.942,106.041,543.96,104.849,547.807,103.225"/>
<path fill="#DE061C" stroke="#000000" stroke-width="2" d="M487.643,190.874c-0.044,0.345-0.089,0.722-0.133,1.127
	c-0.644,5.886-1.093,17.868,4.324,26.179c0,0-5.105-1.392-17.768-1.852L169.673,628.873c0,0-8.647,11.189-17.488,17.173
	c0,0,3.458-23.892,23.668-44.693l275.931-390.233c0,0,5.899-23.291-1.77-23.034c0,0,13.947,3.114,28.208-3.998l12.582-8.528h1.03
	L487.643,190.874z"/>
<path fill="#DE061C" stroke="#000000" stroke-width="2" d="M453.322,159.057c0,0-23.322-18.06-13.229-33.8
	c0.854-1.336,2.002-2.432,3.335-3.284c3.342-2.135,7.374-3.34,11.357-2.734c5.065,0.77,8.319,3.435,10.752,7.84
	c1.163,2.106,1.991,4.392,2.565,6.727c0.368,1.499,0.626,3.024,0.801,4.558c0.165,1.469-0.207,3.661,0.269,5.012
	c-0.001-0.004-5.827-16.572-13.479-12.057C455.694,131.32,440.638,139.135,453.322,159.057z"/>
<path fill="#DE061C" stroke="#000000" stroke-width="2" d="M453.448,158.883c0,0-24.231-16.82-36.213-2.463
	c-1.018,1.218-1.718,2.641-2.131,4.168c-1.031,3.827-0.97,8.036,0.806,11.654c2.256,4.6,5.773,6.903,10.707,7.9
	c2.359,0.476,4.786,0.579,7.187,0.426c1.541-0.099,3.074-0.31,4.588-0.605c1.45-0.283,3.431-1.296,4.862-1.249
	c-0.005,0-17.557-0.581-15.549-9.235C427.705,169.479,430.637,152.771,453.448,158.883z"/>
<path fill="#DE061C" stroke="#000000" stroke-width="2" d="M519.652,207.685c0,0,24.232,16.819,36.213,2.464
	c1.019-1.218,1.718-2.642,2.131-4.168c1.032-3.828,0.971-8.037-0.804-11.654c-2.258-4.6-5.775-6.904-10.708-7.9
	c-2.361-0.477-4.788-0.58-7.187-0.426c-1.541,0.099-3.073,0.311-4.589,0.606c-1.45,0.283-3.431,1.295-4.861,1.249
	c0.004,0,17.556,0.581,15.55,9.235C545.397,197.089,542.463,213.796,519.652,207.685z"/>
<path fill="#DE061C" stroke="#000000" stroke-width="2" d="M519.781,207.511c0,0,23.32,18.061,13.228,33.802
	c-0.856,1.335-2.003,2.431-3.337,3.283c-3.341,2.134-7.374,3.34-11.357,2.734c-5.065-0.771-8.319-3.435-10.751-7.84
	c-1.164-2.108-1.991-4.394-2.566-6.728c-0.368-1.499-0.627-3.024-0.8-4.557c-0.166-1.469,0.205-3.662-0.271-5.013
	c0.001,0.004,5.828,16.572,13.479,12.058C517.406,235.25,532.461,227.433,519.781,207.511z"/>
<path fill="#DE061C" stroke="#000000" stroke-width="2" d="M478.305,183.771c-1.102-0.808-2.203-1.617-3.307-2.425
	c-2.544-1.866-5.088-3.732-7.631-5.598c-2.842-2.083-5.683-4.167-8.522-6.251c-1.645-1.206-3.22-2.507-4.898-3.665
	c-0.813-0.56-1.64-1.182-2.529-1.559c-1.218-0.514-2.375-1.088-3.645-1.481c-2.721-0.844-5.614-1.248-8.463-1.09
	c-2.508,0.139-5.023,0.952-6.763,2.838c-1.135,1.229-1.998,2.817-2.086,4.512c-0.089,1.701,0.751,3.207,1.855,4.441
	c0.427,0.479,0.9,0.918,1.407,1.314c1.732,1.359,3.816,2.228,5.946,2.746c0.842,0.205,1.706,0.37,2.571,0.435
	c-17.279,3.552-21.894-5.517-21.894-5.517c-2.962-7.237,2.748-12.764,2.748-12.764c12.89-11.937,30.092-0.871,30.092-0.871
	l2.933,2.151l3.226,2.366l1.881,1.38l24.9,18.263L478.305,183.771z"/>
<path fill="#DE061C" stroke="#000000" stroke-width="2" d="M486.13,182.995l-32.741-24.016c0,0-15.723-13.083-8.209-28.964
	c0,0,3.558-7.105,11.349-6.455c0,0,10.036,1.677,11.839,19.226c-0.324-0.806-0.739-1.581-1.188-2.324
	c-1.132-1.873-2.589-3.601-4.403-4.846c-0.531-0.364-1.093-0.683-1.677-0.947c-1.509-0.682-3.198-1.031-4.794-0.437
	c-1.591,0.593-2.846,1.894-3.679,3.345c-1.275,2.227-1.295,4.869-0.674,7.303c0.704,2.764,1.959,5.403,3.58,7.746
	c0.757,1.092,1.651,2.024,2.509,3.029c0.626,0.736,1.469,1.339,2.245,1.945c1.61,1.255,3.323,2.365,4.969,3.572
	c2.841,2.084,5.682,4.167,8.523,6.25c2.543,1.867,5.087,3.732,7.63,5.598l3.591,2.646"/>
<path fill="#DE061C" stroke="#000000" stroke-width="2" d="M487.769,190.687c1.103,0.809,2.205,1.617,3.306,2.425
	c2.546,1.867,5.089,3.732,7.633,5.598c2.84,2.084,5.682,4.168,8.522,6.251c1.646,1.208,3.359,2.317,4.969,3.572
	c0.776,0.605,1.62,1.209,2.246,1.944c0.855,1.005,1.751,1.938,2.507,3.03c1.62,2.342,2.876,4.982,3.582,7.746
	c0.621,2.434,0.602,5.078-0.676,7.304c-0.831,1.452-2.086,2.752-3.678,3.345c-1.598,0.595-3.285,0.247-4.793-0.437
	c-0.586-0.265-1.146-0.583-1.678-0.947c-1.814-1.244-3.271-2.973-4.402-4.846c-0.45-0.743-0.866-1.517-1.188-2.324
	c1.804,17.55,11.839,19.227,11.839,19.227c7.79,0.65,11.348-6.456,11.348-6.456c7.516-15.88-8.208-28.964-8.208-28.964l-2.934-2.15
	l-3.226-2.367l-1.882-1.379l-24.897-18.263L487.769,190.687z"/>
<path fill="#DE061C" stroke="#000000" stroke-width="2" d="M486.16,182.99l32.741,24.016c0,0,17.201,11.067,30.093-0.871
	c0,0,5.707-5.527,2.746-12.764c0,0-4.613-9.068-21.893-5.517c0.865,0.065,1.729,0.229,2.571,0.435
	c2.127,0.518,4.214,1.388,5.947,2.746c0.505,0.396,0.978,0.836,1.407,1.314c1.104,1.234,1.943,2.74,1.854,4.44
	c-0.086,1.696-0.95,3.284-2.084,4.513c-1.741,1.887-4.257,2.699-6.763,2.838c-2.85,0.159-5.742-0.246-8.465-1.09
	c-1.269-0.393-2.428-0.967-3.643-1.481c-0.89-0.376-1.718-0.999-2.53-1.559c-1.679-1.158-3.254-2.458-4.898-3.666
	c-2.841-2.084-5.681-4.167-8.522-6.251c-2.544-1.866-5.088-3.731-7.631-5.598l-3.602-2.629"/>
<path fill="#DE061C" stroke="#000000" stroke-width="2" d="M485.207,175.382c0.808-1.101,1.615-2.202,2.423-3.304
	c1.863-2.541,3.727-5.081,5.591-7.623c2.082-2.838,4.162-5.674,6.244-8.512c1.205-1.644,2.505-3.216,3.662-4.894
	c0.558-0.811,1.182-1.638,1.556-2.527c0.514-1.215,1.086-2.372,1.479-3.639c0.842-2.719,1.243-5.611,1.083-8.456
	c-0.14-2.508-0.952-5.022-2.84-6.762c-1.229-1.134-2.816-1.999-4.513-2.086c-1.701-0.089-3.205,0.748-4.438,1.851
	c-0.479,0.428-0.918,0.899-1.313,1.406c-1.355,1.73-2.225,3.814-2.741,5.94c-0.204,0.841-0.367,1.705-0.434,2.57
	c-3.56-17.27,5.503-21.876,5.503-21.876c7.23-2.953,12.761,2.755,12.761,2.755c11.942,12.888,0.889,30.07,0.889,30.07L486.131,183
	l-1.115-7.358L485.207,175.382"/>
<path fill="#DE061C" stroke="#000000" stroke-width="2" d="M493.697,181.583c0.808-1.101,1.616-2.202,2.423-3.303
	c1.864-2.54,3.728-5.082,5.592-7.623c2.082-2.838,4.162-5.674,6.243-8.512c1.206-1.644,2.314-3.355,3.568-4.963
	c0.605-0.776,1.208-1.618,1.943-2.243c1.005-0.855,1.936-1.749,3.027-2.504c2.339-1.619,4.978-2.871,7.74-3.573
	c2.433-0.62,5.075-0.6,7.302,0.677c1.45,0.833,2.752,2.087,3.346,3.678c0.596,1.596,0.248,3.282-0.433,4.789
	c-0.266,0.585-0.583,1.146-0.946,1.675c-1.244,1.814-2.971,3.268-4.843,4.399c-0.741,0.449-1.516,0.863-2.322,1.186
	c17.543-1.791,19.212-11.819,19.212-11.819c0.646-7.784-6.46-11.343-6.46-11.343c-15.879-7.52-28.947,8.185-28.947,8.185
	l-23.987,32.703l7.352-1.147L493.697,181.583"/>
<path fill="#FFFFFF" stroke="#000000" stroke-width="2" d="M101.944,156.002"/>
<path fill="#9E834E" stroke="#000000" stroke-width="2" d="M60.007,193.66l314.378,418.297c0,0,90.081,90.754,31.857-17.494
	C351.465,492.622,130.416,194.314,104.44,159.358"/>
<path fill="#FFFFFF" stroke="#000000" stroke-width="2" d="M58.002,190.992"/>
<g>
	<path fill="#9E834E" stroke="#000000" stroke-width="2" d="M105.481,207.724c8.389-6.53,15.417-14.694,20.667-23.937
		c2.875-3.493,5.185-1.5,5.185-1.5c2.894,1.784,1.244,5.829,1.244,5.829c-6.775,10.233-13.132,17.632-22.281,25.805
		 M105.481,207.724c-8.401,6.514-18.05,11.303-28.302,14.105c-4.095,1.922-2.734,4.653-2.734,4.653
		c1.013,3.245,5.34,2.646,5.34,2.646c11.588-4.035,20.331-8.366,30.512-15.207"/>
</g>
<path fill="#FFFFFF" stroke="#000000" stroke-width="2" d="M95.333,182"/>
<path fill="#DE061C" stroke="#000000" stroke-width="2" d="M102.209,152.768c-0.122,1.614,0.229,3.422,0.092,4.891
	c-0.171,1.843-1.292,3.262-1.984,4.946c-0.91,2.217-0.675,3.743-0.568,6.141c0.298,6.656-5.214,13.98-10.227,18.194
	c-3.363,2.827-7.787,5.198-11.515,7.448c-3.098,1.87-5.601,3.59-9.252,3.862c-3.519,0.262-7.683,0.375-11.163-0.043
	c-3.083-0.371-5.505-1.796-8.073-3.417c-2.523-1.593-5.253-2.333-7.884-3.684c-2.818-1.446-5.471-3.227-7.846-5.324
	c-9.333-8.242-12.34-20.391-10.457-32.449c0,0,4.333,7,10,11.667c0,0-10.919-14.667,1.541-49.333c0,0-2.874,15.334,10.126,28.667
	c0,0-15-28.667,4.667-53.333c0,0-3.663,18.667,8.335,28.667c0,0-6.335-41.667,5.665-48c0,0,1.86,16.667,8.43,20.667
	c0,0,10.903,7,14.903,27c0,0-5.667-21.667,4.333-29c-0.607,5.173-0.483,11.759,2.84,16.056c1.621,2.096,4.003,3.384,5.598,5.547
	c2.334,3.167,3.938,7.113,4.873,10.915c0.882,3.589,0.778,7.151-0.115,10.727c-1.041,4.171-1.502,8.46-1.847,12.737
	C102.509,148.464,102.372,150.617,102.209,152.768z"/>
<path fill="#FFFFFF" stroke="#000000" stroke-width="2" d="M90.92,182.298"/>
<path fill="#9E834E" stroke="#000000" stroke-width="2" d="M65.125,189.375c-0.39-1.256-3.416-1.826-4.608-2.436
	c-1.822-0.933-3.529-2.113-5-3.54c-4.434-4.299-5.821-10.34-4.837-16.33c0,0,2.422,3.719,5.589,6.198c0,0-6.103-7.792,0.861-26.207
	c0,0-1.606,8.145,5.66,15.228c0,0-8.383-15.228,2.608-28.332c0,0-2.047,9.916,4.659,15.228c0,0-3.541-22.134,3.166-25.499
	c0,0,1.04,8.854,4.711,10.979c0,0,6.094,3.718,8.329,14.343c0,0-3.167-11.51,2.422-15.405c-0.96,0.669-0.087,4.733,0.25,5.79
	c0.666,2.09,2.354,3.37,3.927,4.786c1.998,1.8,3.359,5.92,3.59,8.52c0.257,2.892-0.724,5.635-1.114,8.462
	c-0.33,2.391,0.043,5.009-0.722,7.326"/>
<g>
	<path fill="#9E834E" stroke="#000000" stroke-width="2" d="M82.991,179.087c10.479-8.159,18.823-18.82,24.511-30.804
		c3.422-4.49,6.889-1.345,6.889-1.345c4.232,2.937,2.56,8.4,2.56,8.4c-7.376,13.35-15.099,23.221-26.519,33.331 M82.991,179.087
		c-10.497,8.137-22.893,13.582-35.91,16.132c-5.197,2.206-3.005,6.343-3.005,6.343c1.799,4.827,7.506,4.558,7.506,4.558
		c14.755-3.846,26.232-8.889,38.849-17.451"/>
</g>
<path fill="#FFFFFF" stroke="#000000" stroke-width="2" d="M480.735,182.727"/>
<path fill="#FFFFFF" stroke="#000000" stroke-width="2" d="M486.39,176.95"/>
<path fill="#FFFFFF" stroke="#000000" stroke-width="2" d="M493.319,182.853"/>
<path fill="#FFFFFF" stroke="#000000" stroke-width="2" d="M488.013,188.466"/>
<path fill="#DE061C" stroke="#000000" stroke-width="2" d="M450.014,188.085c0,0,26.579,8.879-0.437,43.47L151.409,645.445
	c0,0,2.261-25.979,19.814-47.804l265.806-378.019C437.029,219.623,454.67,189.131,450.014,188.085z"/>
<path fill="#DE061C" stroke="#000000" stroke-width="2" d="M491.834,218.18c0,0-16.832-22.409-41.119,14.155l-298.53,413.711
	c0,0,23.94-10.358,39.104-33.909l274.718-371.669C466.007,240.467,489.368,214.093,491.834,218.18z"/>
<path fill="none" stroke="#000000" stroke-width="2" d="M521.79,177.169"/>
<path fill="none" stroke="#000000" stroke-width="2" d="M435.212,150.156"/>
<path fill="none" stroke="#000000" stroke-width="2" d="M609.441,169.875"/>
<path fill="none" stroke="#000000" stroke-width="2" d="M609.254,169.719"/>
<path fill="none" stroke="#000000" stroke-width="2" d="M568.053,172.872"/>
<path fill="none" stroke="#000000" stroke-width="2" d="M486.977,183.905"/>
<path fill="none" stroke="#000000" stroke-width="2" d="M486.787,183.748"/>
<path fill="#DE061C" stroke="#000000" stroke-width="2" d="M408.111,125.763l0.128-0.174c8.367-8.023,21.525,2.355,21.525,2.355
	c7.203,6.136,11.366,17.792,11.366,17.792c0.56,2.194,23.594,21.551,23.594,21.551 M408.111,125.763l-0.127,0.174
	c-5.141,10.39,8.711,19.824,8.711,19.824c8.018,5.028,20.386,5.496,20.386,5.496c2.262-0.125,27.644,16.03,27.644,16.03"/>
<path fill="none" stroke="#000000" stroke-width="2" d="M518.759,122.881"/>
<path fill="none" stroke="#000000" stroke-width="2" d="M536.079,66.646"/>
<path fill="none" stroke="#000000" stroke-width="2" d="M485.54,179.495"/>
<path fill="none" stroke="#000000" stroke-width="2" d="M485.066,175.56"/>
<path fill="none" stroke="#000000" stroke-width="2" d="M485.066,175.56"/>
<path fill="none" stroke="#000000" stroke-width="2" d="M485.066,175.56"/>
<path fill="none" stroke="#000000" stroke-width="2" d="M485.986,183.184"/>
<path fill="none" stroke="#000000" stroke-width="2" d="M485.023,182.447"/>
<path fill="none" stroke="#000000" stroke-width="2" d="M485.229,182.58"/>
<path fill="#DE061C" stroke="#000000" stroke-width="2" d="M507.57,198.689c0,0,25.382,16.155,27.645,16.031
	c0,0,12.367,0.468,20.385,5.496c0,0,13.852,9.435,8.712,19.824l-0.128,0.174 M507.57,198.689c0,0,23.034,19.357,23.595,21.552
	c0,0,4.162,11.656,11.364,17.792c0,0,13.161,10.379,21.526,2.356l0.128-0.174"/>
<path fill="none" stroke="#000000" stroke-width="2" d="M547.895,138.441"/>
<path fill="none" stroke="#000000" stroke-width="2" d="M546.307,137.64"/>
<path fill="none" stroke="#000000" stroke-width="2" d="M544.485,136.148"/>
<path fill="none" stroke="#000000" stroke-width="2" d="M489.661,182.491"/>
<path fill="none" stroke="#000000" stroke-width="2" d="M493.557,181.762"/>
<path fill="none" stroke="#000000" stroke-width="2" d="M493.557,181.762"/>
<path fill="none" stroke="#000000" stroke-width="2" d="M493.557,181.762"/>
<path fill="none" stroke="#000000" stroke-width="2" d="M486.011,183.175"/>
<g>
	<path fill="#004D95" d="M286.771,643.006c-153,1-174-154-174-154v-270h174 M286.771,643.006c153,1,174-154,174-154v-270h-174"/>
	<g>
		<path fill="#9E834E" d="M286.771,640.006c-38.53,0.132-76.471-10.268-106.636-34.89c-22.177-18.102-38.58-42.292-49.952-68.385
			c-6.454-14.808-11.458-30.571-14.2-46.513c-0.111-0.646-0.212-2.978-0.212-1.291c0-1.293,0-2.585,0-3.877
			c0-7.619,0-15.238,0-22.856c0-60.35,0-120.7,0-181.049c0-20.713,0-41.426,0-62.139c-1,1-2,2-3,3c49.977,0,99.953,0,149.929,0
			c8.023,0,16.047,0,24.071,0c3.869,0,3.869-6,0-6c-49.977,0-99.953,0-149.929,0c-8.023,0-16.047,0-24.071,0c-1.635,0-3,1.365-3,3
			c0,44.167,0,88.333,0,132.5c0,45.792,0,91.585,0,137.378c0,2.811,0.944,5.865,1.518,8.581c1.672,7.91,3.875,15.708,6.432,23.376
			c8.187,24.544,20.486,47.768,37.117,67.643c14.263,17.044,32.051,31.043,52.043,40.756c24.82,12.058,52.443,16.86,79.89,16.767
			C290.639,645.992,290.64,639.992,286.771,640.006L286.771,640.006z"/>
		<path fill="#9E834E" d="M286.771,646.006c38.169,0.131,75.896-9.766,106.494-33.173c23.056-17.638,40.592-41.519,52.849-67.681
			c7.613-16.25,13.489-33.539,16.843-51.188c1.537-8.091,0.814-16.483,0.814-24.682c0-59.199,0-118.397,0-177.596
			c0-24.227,0-48.454,0-72.681c0-1.635-1.364-3-3-3c-49.977,0-99.953,0-149.93,0c-8.023,0-16.047,0-24.07,0c-3.869,0-3.869,6,0,6
			c49.977,0,99.953,0,149.93,0c8.023,0,16.047,0,24.07,0c-1-1-2-2-3-3c0,44.167,0,88.333,0,132.5c0,45.792,0,91.585,0,137.378
			c0-1.522-0.057,0.416-0.182,1.16c-0.367,2.177-0.802,4.343-1.267,6.5c-1.741,8.082-4.025,16.047-6.683,23.873
			c-8.419,24.793-21.255,48.333-38.73,67.911c-31.796,35.622-77.006,51.84-124.139,51.678
			C282.901,639.992,282.902,645.992,286.771,646.006L286.771,646.006z"/>
	</g>
</g>
<path fill="#FFFFFF" stroke="#000000" stroke-width="2" d="M137.68,251.606"/>
<path fill="#FFFFFF" stroke="#000000" stroke-width="2" d="M134.299,253.405"/>
<path fill="#FFFFFF" stroke="#000000" stroke-width="2" d="M134.632,253.422"/>
<path fill="#FFFFFF" stroke="#000000" stroke-width="2" d="M138.222,251.387"/>
<path fill="#FFFFFF" stroke="#000000" stroke-width="2" d="M151.631,251.606"/>
<path fill="#FFFFFF" stroke="#000000" stroke-width="2" d="M155.011,253.405"/>
<path fill="#FFFFFF" stroke="#000000" stroke-width="2" d="M154.678,253.422"/>
<path fill="#FFFFFF" stroke="#000000" stroke-width="2" d="M151.089,251.387"/>
<path fill="#FFFFFF" stroke="#000000" stroke-width="2" d="M136.316,261.966l-8.489-7.708l16.828,3.476L136.316,261.966z
	 M139.439,252.554l-11.612,1.717l16.828,3.476L139.439,252.554z M144.655,257.747l-8.339,4.232l-1.88,11.018L144.655,257.747z
	 M134.437,272.998l10.219-5.226v-10.024L134.437,272.998z M152.994,261.966l8.489-7.708l-16.828,3.476L152.994,261.966z
	 M144.655,257.747l16.828-3.476l-11.612-1.717L144.655,257.747z M154.874,272.998l-1.88-11.018l-8.339-4.232L154.874,272.998z
	 M144.655,257.747v10.024l10.219,5.226L144.655,257.747z M139.551,252.554l5.104,5.193v-15.25L139.551,252.554z M144.655,242.497
	v15.25l5.104-5.193L144.655,242.497z"/>
<g>
	<path fill="#FFFFFF" stroke="#000000" stroke-width="2" d="M281.987,250.981"/>
	<path fill="#FFFFFF" stroke="#000000" stroke-width="2" d="M278.606,252.779"/>
	<path fill="#FFFFFF" stroke="#000000" stroke-width="2" d="M278.939,252.796"/>
	<path fill="#FFFFFF" stroke="#000000" stroke-width="2" d="M282.529,250.762"/>
	<polygon fill="#FFFFFF" stroke="#000000" stroke-width="2" points="280.624,261.341 272.134,253.633 288.962,257.108 	"/>
	<polygon fill="#FFFFFF" stroke="#000000" stroke-width="2" points="283.747,251.929 272.134,253.646 288.962,257.122 	"/>
	<polygon fill="#FFFFFF" stroke="#000000" stroke-width="2" points="288.962,257.122 280.624,261.354 278.744,272.372 	"/>
	<polygon fill="#FFFFFF" stroke="#000000" stroke-width="2" points="288.962,257.122 288.962,267.146 278.744,272.372 	"/>
	<path fill="#FFFFFF" stroke="#000000" stroke-width="2" d="M295.938,250.981"/>
	<path fill="#FFFFFF" stroke="#000000" stroke-width="2" d="M299.318,252.779"/>
	<path fill="#FFFFFF" stroke="#000000" stroke-width="2" d="M298.985,252.796"/>
	<path fill="#FFFFFF" stroke="#000000" stroke-width="2" d="M295.396,250.762"/>
	<polygon fill="#FFFFFF" stroke="#000000" stroke-width="2" points="297.301,261.341 305.791,253.633 288.962,257.108 	"/>
	<polygon fill="#FFFFFF" stroke="#000000" stroke-width="2" points="294.178,251.929 305.791,253.646 288.962,257.122 	"/>
	<polygon fill="#FFFFFF" stroke="#000000" stroke-width="2" points="288.962,257.122 297.301,261.354 299.182,272.372 	"/>
	<polygon fill="#FFFFFF" stroke="#000000" stroke-width="2" points="288.962,257.122 288.962,267.146 299.182,272.372 	"/>
	<polygon fill="#FFFFFF" stroke="#000000" stroke-width="2" points="288.962,241.872 288.962,257.122 283.858,251.929 	"/>
	<polygon fill="#FFFFFF" stroke="#000000" stroke-width="2" points="288.962,241.872 288.962,257.122 294.066,251.929 	"/>
</g>
<g>
	<path fill="#FFFFFF" stroke="#000000" stroke-width="2" d="M425.195,250.98"/>
	<path fill="#FFFFFF" stroke="#000000" stroke-width="2" d="M421.814,252.779"/>
	<path fill="#FFFFFF" stroke="#000000" stroke-width="2" d="M422.148,252.796"/>
	<path fill="#FFFFFF" stroke="#000000" stroke-width="2" d="M425.737,250.761"/>
	<polygon fill="#FFFFFF" stroke="#000000" stroke-width="2" points="423.832,261.34 415.343,253.632 432.171,257.108 	"/>
	<polygon fill="#FFFFFF" stroke="#000000" stroke-width="2" points="426.955,251.928 415.343,253.646 432.171,257.121 	"/>
	<polygon fill="#FFFFFF" stroke="#000000" stroke-width="2" points="432.171,257.121 423.832,261.354 421.952,272.372 	"/>
	<polygon fill="#FFFFFF" stroke="#000000" stroke-width="2" points="432.171,257.121 432.171,267.146 421.952,272.372 	"/>
	<path fill="#FFFFFF" stroke="#000000" stroke-width="2" d="M439.146,250.98"/>
	<path fill="#FFFFFF" stroke="#000000" stroke-width="2" d="M442.527,252.779"/>
	<path fill="#FFFFFF" stroke="#000000" stroke-width="2" d="M442.193,252.796"/>
	<path fill="#FFFFFF" stroke="#000000" stroke-width="2" d="M438.604,250.761"/>
	<polygon fill="#FFFFFF" stroke="#000000" stroke-width="2" points="440.51,261.34 449,253.632 432.171,257.108 	"/>
	<polygon fill="#FFFFFF" stroke="#000000" stroke-width="2" points="437.387,251.928 449,253.646 432.171,257.121 	"/>
	<polygon fill="#FFFFFF" stroke="#000000" stroke-width="2" points="432.171,257.121 440.51,261.354 442.391,272.372 	"/>
	<polygon fill="#FFFFFF" stroke="#000000" stroke-width="2" points="432.171,257.121 432.171,267.146 442.391,272.372 	"/>
	<polygon fill="#FFFFFF" stroke="#000000" stroke-width="2" points="432.171,241.871 432.171,257.121 427.066,251.928 	"/>
	<polygon fill="#FFFFFF" stroke="#000000" stroke-width="2" points="432.171,241.871 432.171,257.121 437.275,251.928 	"/>
</g>
<g>
	<path fill="#FFFFFF" stroke="#000000" stroke-width="2" d="M137.791,365.939"/>
	<path fill="#FFFFFF" stroke="#000000" stroke-width="2" d="M134.41,367.737"/>
	<path fill="#FFFFFF" stroke="#000000" stroke-width="2" d="M134.744,367.754"/>
	<path fill="#FFFFFF" stroke="#000000" stroke-width="2" d="M138.333,365.72"/>
	<polygon fill="#FFFFFF" stroke="#000000" stroke-width="2" points="136.428,376.299 127.938,368.591 144.767,372.066 	"/>
	<polygon fill="#FFFFFF" stroke="#000000" stroke-width="2" points="139.551,366.887 127.938,368.604 144.767,372.08 	"/>
	<polygon fill="#FFFFFF" stroke="#000000" stroke-width="2" points="144.767,372.08 136.428,376.312 134.548,387.33 	"/>
	<polygon fill="#FFFFFF" stroke="#000000" stroke-width="2" points="144.767,372.08 144.767,382.104 134.548,387.33 	"/>
	<path fill="#FFFFFF" stroke="#000000" stroke-width="2" d="M151.742,365.939"/>
	<path fill="#FFFFFF" stroke="#000000" stroke-width="2" d="M155.123,367.737"/>
	<path fill="#FFFFFF" stroke="#000000" stroke-width="2" d="M154.789,367.754"/>
	<path fill="#FFFFFF" stroke="#000000" stroke-width="2" d="M151.2,365.72"/>
	<polygon fill="#FFFFFF" stroke="#000000" stroke-width="2" points="153.105,376.299 161.596,368.591 144.767,372.066 	"/>
	<polygon fill="#FFFFFF" stroke="#000000" stroke-width="2" points="149.982,366.887 161.596,368.604 144.767,372.08 	"/>
	<polygon fill="#FFFFFF" stroke="#000000" stroke-width="2" points="144.767,372.08 153.105,376.312 154.986,387.33 	"/>
	<polygon fill="#FFFFFF" stroke="#000000" stroke-width="2" points="144.767,372.08 144.767,382.104 154.986,387.33 	"/>
	<polygon fill="#FFFFFF" stroke="#000000" stroke-width="2" points="144.767,356.83 144.767,372.08 139.662,366.887 	"/>
	<polygon fill="#FFFFFF" stroke="#000000" stroke-width="2" points="144.767,356.83 144.767,372.08 149.871,366.887 	"/>
</g>
<g>
	<path fill="#FFFFFF" stroke="#000000" stroke-width="2" d="M426.747,375.839"/>
	<path fill="#FFFFFF" stroke="#000000" stroke-width="2" d="M423.366,377.637"/>
	<path fill="#FFFFFF" stroke="#000000" stroke-width="2" d="M423.7,377.654"/>
	<path fill="#FFFFFF" stroke="#000000" stroke-width="2" d="M427.289,375.62"/>
	<polygon fill="#FFFFFF" stroke="#000000" stroke-width="2" points="425.384,386.199 416.895,378.491 433.723,381.966 	"/>
	<polygon fill="#FFFFFF" stroke="#000000" stroke-width="2" points="428.507,376.787 416.895,378.504 433.723,381.979 	"/>
	<polygon fill="#FFFFFF" stroke="#000000" stroke-width="2" points="433.723,381.979 425.384,386.212 423.504,397.23 	"/>
	<polygon fill="#FFFFFF" stroke="#000000" stroke-width="2" points="433.723,381.979 433.723,392.004 423.504,397.23 	"/>
	<path fill="#FFFFFF" stroke="#000000" stroke-width="2" d="M440.698,375.839"/>
	<path fill="#FFFFFF" stroke="#000000" stroke-width="2" d="M444.079,377.637"/>
	<path fill="#FFFFFF" stroke="#000000" stroke-width="2" d="M443.745,377.654"/>
	<path fill="#FFFFFF" stroke="#000000" stroke-width="2" d="M440.156,375.62"/>
	<polygon fill="#FFFFFF" stroke="#000000" stroke-width="2" points="442.062,386.199 450.552,378.491 433.723,381.966 	"/>
	<polygon fill="#FFFFFF" stroke="#000000" stroke-width="2" points="438.938,376.787 450.552,378.504 433.723,381.979 	"/>
	<polygon fill="#FFFFFF" stroke="#000000" stroke-width="2" points="433.723,381.979 442.062,386.212 443.942,397.23 	"/>
	<polygon fill="#FFFFFF" stroke="#000000" stroke-width="2" points="433.723,381.979 433.723,392.004 443.942,397.23 	"/>
	<polygon fill="#FFFFFF" stroke="#000000" stroke-width="2" points="433.723,366.729 433.723,381.979 428.618,376.787 	"/>
	<polygon fill="#FFFFFF" stroke="#000000" stroke-width="2" points="433.723,366.729 433.723,381.979 438.827,376.787 	"/>
</g>
<g>
	<path fill="#FFFFFF" stroke="#000000" stroke-width="2" d="M138.791,494.859"/>
	<path fill="#FFFFFF" stroke="#000000" stroke-width="2" d="M135.41,496.657"/>
	<path fill="#FFFFFF" stroke="#000000" stroke-width="2" d="M135.744,496.674"/>
	<path fill="#FFFFFF" stroke="#000000" stroke-width="2" d="M139.333,494.64"/>
	<polygon fill="#FFFFFF" stroke="#000000" stroke-width="2" points="137.428,505.219 128.938,497.511 145.767,500.986 	"/>
	<polygon fill="#FFFFFF" stroke="#000000" stroke-width="2" points="140.551,495.807 128.938,497.523 145.767,501 	"/>
	<polygon fill="#FFFFFF" stroke="#000000" stroke-width="2" points="145.767,501 137.428,505.232 135.548,516.25 	"/>
	<polygon fill="#FFFFFF" stroke="#000000" stroke-width="2" points="145.767,501 145.767,511.023 135.548,516.25 	"/>
	<path fill="#FFFFFF" stroke="#000000" stroke-width="2" d="M152.742,494.859"/>
	<path fill="#FFFFFF" stroke="#000000" stroke-width="2" d="M156.123,496.657"/>
	<path fill="#FFFFFF" stroke="#000000" stroke-width="2" d="M155.789,496.674"/>
	<path fill="#FFFFFF" stroke="#000000" stroke-width="2" d="M152.2,494.64"/>
	<polygon fill="#FFFFFF" stroke="#000000" stroke-width="2" points="154.105,505.219 162.596,497.511 145.767,500.986 	"/>
	<polygon fill="#FFFFFF" stroke="#000000" stroke-width="2" points="150.982,495.807 162.596,497.523 145.767,501 	"/>
	<polygon fill="#FFFFFF" stroke="#000000" stroke-width="2" points="145.767,501 154.105,505.232 155.986,516.25 	"/>
	<polygon fill="#FFFFFF" stroke="#000000" stroke-width="2" points="145.767,501 145.767,511.023 155.986,516.25 	"/>
	<polygon fill="#FFFFFF" stroke="#000000" stroke-width="2" points="145.767,485.75 145.767,501 140.662,495.807 	"/>
	<polygon fill="#FFFFFF" stroke="#000000" stroke-width="2" points="145.767,485.75 145.767,501 150.871,495.807 	"/>
</g>
<g>
	<path fill="#FFFFFF" stroke="#000000" stroke-width="2" d="M426.747,494.858"/>
	<path fill="#FFFFFF" stroke="#000000" stroke-width="2" d="M423.366,496.656"/>
	<path fill="#FFFFFF" stroke="#000000" stroke-width="2" d="M423.7,496.673"/>
	<path fill="#FFFFFF" stroke="#000000" stroke-width="2" d="M427.289,494.639"/>
	<polygon fill="#FFFFFF" stroke="#000000" stroke-width="2" points="425.384,505.218 416.895,497.51 433.723,500.985 	"/>
	<polygon fill="#FFFFFF" stroke="#000000" stroke-width="2" points="428.507,495.806 416.895,497.522 433.723,500.999 	"/>
	<polygon fill="#FFFFFF" stroke="#000000" stroke-width="2" points="433.723,500.999 425.384,505.231 423.504,516.249 	"/>
	<polygon fill="#FFFFFF" stroke="#000000" stroke-width="2" points="433.723,500.999 433.723,511.022 423.504,516.249 	"/>
	<path fill="#FFFFFF" stroke="#000000" stroke-width="2" d="M440.698,494.858"/>
	<path fill="#FFFFFF" stroke="#000000" stroke-width="2" d="M444.079,496.656"/>
	<path fill="#FFFFFF" stroke="#000000" stroke-width="2" d="M443.745,496.673"/>
	<path fill="#FFFFFF" stroke="#000000" stroke-width="2" d="M440.156,494.639"/>
	<polygon fill="#FFFFFF" stroke="#000000" stroke-width="2" points="442.062,505.218 450.552,497.51 433.723,500.985 	"/>
	<polygon fill="#FFFFFF" stroke="#000000" stroke-width="2" points="438.938,495.806 450.552,497.522 433.723,500.999 	"/>
	<polygon fill="#FFFFFF" stroke="#000000" stroke-width="2" points="433.723,500.999 442.062,505.231 443.942,516.249 	"/>
	<polygon fill="#FFFFFF" stroke="#000000" stroke-width="2" points="433.723,500.999 433.723,511.022 443.942,516.249 	"/>
	<polygon fill="#FFFFFF" stroke="#000000" stroke-width="2" points="433.723,485.749 433.723,500.999 428.618,495.806 	"/>
	<polygon fill="#FFFFFF" stroke="#000000" stroke-width="2" points="433.723,485.749 433.723,500.999 438.827,495.806 	"/>
</g>
<g>
	<path fill="#FFFFFF" stroke="#000000" stroke-width="2" d="M222.554,591.73"/>
	<path fill="#FFFFFF" stroke="#000000" stroke-width="2" d="M219.173,593.528"/>
	<path fill="#FFFFFF" stroke="#000000" stroke-width="2" d="M219.507,593.545"/>
	<path fill="#FFFFFF" stroke="#000000" stroke-width="2" d="M223.096,591.511"/>
	<polygon fill="#FFFFFF" stroke="#000000" stroke-width="2" points="221.19,602.09 212.701,594.382 229.529,597.857 	"/>
	<polygon fill="#FFFFFF" stroke="#000000" stroke-width="2" points="224.313,592.678 212.701,594.395 229.529,597.871 	"/>
	<polygon fill="#FFFFFF" stroke="#000000" stroke-width="2" points="229.529,597.871 221.19,602.104 219.311,613.121 	"/>
	<polygon fill="#FFFFFF" stroke="#000000" stroke-width="2" points="229.529,597.871 229.529,607.895 219.311,613.121 	"/>
	<path fill="#FFFFFF" stroke="#000000" stroke-width="2" d="M236.505,591.73"/>
	<path fill="#FFFFFF" stroke="#000000" stroke-width="2" d="M239.886,593.528"/>
	<path fill="#FFFFFF" stroke="#000000" stroke-width="2" d="M239.552,593.545"/>
	<path fill="#FFFFFF" stroke="#000000" stroke-width="2" d="M235.963,591.511"/>
	<polygon fill="#FFFFFF" stroke="#000000" stroke-width="2" points="237.868,602.09 246.358,594.382 229.529,597.857 	"/>
	<polygon fill="#FFFFFF" stroke="#000000" stroke-width="2" points="234.745,592.678 246.358,594.395 229.529,597.871 	"/>
	<polygon fill="#FFFFFF" stroke="#000000" stroke-width="2" points="229.529,597.871 237.868,602.104 239.749,613.121 	"/>
	<polygon fill="#FFFFFF" stroke="#000000" stroke-width="2" points="229.529,597.871 229.529,607.895 239.749,613.121 	"/>
	<polygon fill="#FFFFFF" stroke="#000000" stroke-width="2" points="229.529,582.621 229.529,597.871 224.425,592.678 	"/>
	<polygon fill="#FFFFFF" stroke="#000000" stroke-width="2" points="229.529,582.621 229.529,597.871 234.634,592.678 	"/>
</g>
<g>
	<path fill="#FFFFFF" stroke="#000000" stroke-width="2" d="M346.509,591.134"/>
	<path fill="#FFFFFF" stroke="#000000" stroke-width="2" d="M343.128,592.932"/>
	<path fill="#FFFFFF" stroke="#000000" stroke-width="2" d="M343.462,592.948"/>
	<path fill="#FFFFFF" stroke="#000000" stroke-width="2" d="M347.051,590.914"/>
	<polygon fill="#FFFFFF" stroke="#000000" stroke-width="2" points="345.146,601.493 336.656,593.785 353.484,597.261 	"/>
	<polygon fill="#FFFFFF" stroke="#000000" stroke-width="2" points="348.269,592.081 336.656,593.798 353.484,597.274 	"/>
	<polygon fill="#FFFFFF" stroke="#000000" stroke-width="2" points="353.484,597.274 345.146,601.507 343.266,612.524 	"/>
	<polygon fill="#FFFFFF" stroke="#000000" stroke-width="2" points="353.484,597.274 353.484,607.298 343.266,612.524 	"/>
	<path fill="#FFFFFF" stroke="#000000" stroke-width="2" d="M360.46,591.134"/>
	<path fill="#FFFFFF" stroke="#000000" stroke-width="2" d="M363.841,592.932"/>
	<path fill="#FFFFFF" stroke="#000000" stroke-width="2" d="M363.507,592.948"/>
	<path fill="#FFFFFF" stroke="#000000" stroke-width="2" d="M359.918,590.914"/>
	<polygon fill="#FFFFFF" stroke="#000000" stroke-width="2" points="361.823,601.493 370.313,593.785 353.484,597.261 	"/>
	<polygon fill="#FFFFFF" stroke="#000000" stroke-width="2" points="358.7,592.081 370.313,593.798 353.484,597.274 	"/>
	<polygon fill="#FFFFFF" stroke="#000000" stroke-width="2" points="353.484,597.274 361.823,601.507 363.704,612.524 	"/>
	<polygon fill="#FFFFFF" stroke="#000000" stroke-width="2" points="353.484,597.274 353.484,607.298 363.704,612.524 	"/>
	<polygon fill="#FFFFFF" stroke="#000000" stroke-width="2" points="353.484,582.024 353.484,597.274 348.38,592.081 	"/>
	<polygon fill="#FFFFFF" stroke="#000000" stroke-width="2" points="353.484,582.024 353.484,597.274 358.589,592.081 	"/>
</g>
<g>
	<path fill="#FFFFFF" d="M289.585,584.749c-104.307,0.726-118.624-111.681-118.624-111.681V277.264h118.624 M289.585,584.749
		c104.308,0.726,118.625-111.681,118.625-111.681V277.264H289.585"/>
	<g>
		<path fill="#9E834E" d="M289.585,581.749c-19.636,0.045-38.937-3.993-56.11-13.727c-13.773-7.806-25.308-19.111-34.366-32.02
			c-12.401-17.672-20.629-38.595-24.603-59.781c-0.172-0.919-0.331-1.84-0.478-2.763c-0.064-0.407-0.269-1.953-0.067-0.391
			c-0.166-1.289,0-2.71,0-4.007c0-9.239,0-18.479,0-27.719c0-31.271,0-62.541,0-93.811c0-23.423,0-46.846,0-70.269c-1,1-2,2-3,3
			c39.542,0,79.083,0,118.624,0c3.869,0,3.869-6,0-6c-39.542,0-79.083,0-118.624,0c-1.635,0-3,1.365-3,3
			c0,49.519,0,99.037,0,148.556c0,11.802,0,23.604,0,35.405c0,4.188-0.441,8.632,0.128,12.797
			c2.285,16.724,8.32,33.345,15.893,48.332c8.735,17.285,20.966,32.703,36.506,44.333c19.874,14.874,44.536,21.118,69.097,21.063
			C293.454,587.74,293.455,581.74,289.585,581.749L289.585,581.749z"/>
		<path fill="#9E834E" d="M289.585,587.749c36.118,0.082,69.206-14.41,91.522-43.11c14.314-18.409,23.786-40.696,28.666-63.437
			c2.213-10.314,1.437-20.739,1.437-31.254c0-30.234,0-60.469,0-90.703c0-27.327,0-54.654,0-81.981c0-1.635-1.364-3-3-3
			c-39.542,0-79.083,0-118.625,0c-3.869,0-3.869,6,0,6c39.542,0,79.083,0,118.625,0c-1-1-2-2-3-3c0,49.519,0,99.037,0,148.556
			c0,11.802,0,23.604,0,35.405c0,3.165,0,6.331,0,9.496c0,0.753-0.134,3.269,0.065,1.854c-2.427,17.229-8.633,34.354-16.777,49.643
			c-8.396,15.759-19.873,29.972-34.424,40.438c-18.798,13.521-41.554,19.147-64.489,19.095
			C285.716,581.74,285.717,587.74,289.585,587.749L289.585,587.749z"/>
	</g>
</g>
<path fill="#F8B334" stroke="#000000" stroke-width="2" d="M14.063,403.513"/>
<path fill="#F8B334" stroke="#000000" stroke-width="2" d="M75.669,403.513"/>
<path fill="#FFFFFF" stroke="#000000" stroke-width="2" d="M183.667,379.579"/>
<path fill="#FFFFFF" stroke="#000000" stroke-width="2" d="M261.201,381.032"/>
<path fill="#FFFFFF" stroke="#000000" stroke-width="2" d="M214.908,389.186"/>
<path fill="#FFFFFF" stroke="#000000" stroke-width="2" d="M252.953,384.312"/>
<path fill="#DE061C" stroke="#000000" stroke-width="2" d="M359.621,378.93c0,0,6.025,1.839,6.906-5.39c0,0,0.465-5.716,6.881-3.931
	c0,0,5.969,1.629,2.734,11.457c0,0-2.568,12.091-17.4,9.918C358.742,390.984,355.752,379.048,359.621,378.93z"/>
<path fill="#DE061C" stroke="#000000" stroke-width="2" d="M318.658,487.924c0,0-5.5-14.803,6.666-38.332
	c0,0,3.668-15.955-12.832-18.117c0,0-26.166-1.854-37.333-28.883c0,0,40.194-41.53,50.513-17.78c0,0-9.525,22.185,18.82,31.166
	c0,0,12.539,4.816,16.395,14.701c0,0,10.449-8.949-9.098-21.783c0,0-21.129-15.341-1.213-30.962c0,0-0.916-18.061,6.75-26.341
	c0,0-2.975-7.405,6.332-19c0,0-0.996-6.034,3.168-10.782c0,0,4.217,4.533,6.941-2.107c0,0,3.143-9.83,15.059-5.11
	c0,0-8.326,0.639-6.584,12.372c0,0,3-3.592,9.125-0.747c0,0-6.557,4.756-6.842,9.8c0,0-0.533,21.294-19.783,20.794
	c-0.1-0.002-0.488,1.01-0.527,1.095c-1.545,3.369-2.715,6.925-3.559,10.531c-1.32,5.64-1.805,11.531-0.967,17.281
	c1.014,6.95,4.074,13.413,8.871,18.554c1.254,1.343,2.447,2.4,4.037,3.289c1.514,0.846,2.723,2.098,3.66,3.545
	c1.902,2.932,2.783,6.453,3.359,9.861c0,0-6.875-0.156-6.875,5.094c0,0,0,5.811,6.875,7.156c0,0-3.125,4.844-5.875,0.844
	c0,0,3.5,5.561,0.75,12.406c0,0-0.959-5.197-4.875-7.072c0,0,2.625,2.811,0.5,9.447c0,0-2.418-2.656-6.168-3.49
	c0,0,3.793,8.52-1.957,17.49c0,0-7.25,3.279,11.25,22.75c0,0,7.508,6.529,2.879,11.25c0,0-5.879-3.781-8.629-2.031
	c0,0,19.75,17.479,0,29.115c0,0,2.732,7.797-7.26,11.842c0,0-6.824,1.021-6.908,9.908c0,0-6.582-1.115-5.082-8.115
	c0,0-9.666,3.979-12.834,12.115c0,0-19.416-6.615-3.666-14.865c0,0-0.75-3.855-5.75-5.053c0,0,1.293-10.078,7.271-10.512
	c0,0,4.227-0.934,9.061,3.398c0,0,9.334,4.666,10-4.166c0,0,2.168-15.668-4.832-24.168c0,0-10.375,3.625-13.625-7.5
	c0,0-4.375,7.25-3.375,13.5c0,0-5.75-8.439-2.625-18.344c0,0-2,3.445-3.375,5.957c0,0-5.625-5.363,0.125-16.363
	C324.617,471.561,318.576,479.412,318.658,487.924z"/>
<path fill="#DE061C" stroke="#000000" stroke-width="2" d="M382.252,327.208c0,0,3.852,10.794-14.982,21.294"/>
<path fill="#DE061C" stroke="#000000" stroke-width="2" d="M319.129,465.594c0,0-10.887-16.723-22.637,0.248
	c0,0-5.75-5.721,0.5-12.75c0,0-5.75-0.471-5.75,6.25c0,0-6.25,2.279-8-4.5c0,0-8.082,8.463,0.584,16.342
	c0,0,12.947,14.938,11.307,23.658c0,0-4.891-3.471-6.141-1.75c0,0,3.25,10.279,9.5,8.5c0,0-1.5,12.029-13,4.25
	c0,0,1.75,5.779,4.75,7.25c0,0-2.25,5.529-7.5,2.5c0,0-7.25,3.779,0.5,8c0,0-2.5,5.779-11,0.5c0,0,3.584,3.529,2.917,6.25
	c0,0-4.667-1.721-8.167-0.25c0,0,5.938,9.32,1.25,12.25c0,0-0.75-4.471-5-5.25c0,0,3.049,5.154,0,8.5c0,0-0.25-3.471-3.5-4.25
	c0,0,2.398,2.697,1.949,8.334c0,0-12.449-15.055-25.199-7.334c0,0-4.5-9.471,3.5-14.25c0,0,0.5-6.971-7-10c0,0,7.25-9.721,17.25,2.5
	c0,0,10.889,6.883,7.194-11.324c0,0-3.694-10.396,4.306-9.926c0,0,2.086-5.498-5.457-10.389c0,0-9.793-5.748-7.793-15.611
	c0,0-1.666,12.268-7.333,14.369c0,0-8.334,4.494-4.167,10.131c0,0-10.833-7.305-0.5-21c0,0-4.798,4.557-12.399,4.43
	c0,0-11.601,4.934-2.101,14.07c0,0-11.764,0.363-11.799-13.084c0,0,0.276-12.391,16.27-12.02c0,0,13.722,2.762,5.375-11.666
	c0,0-7.042-7.096,15.306-14.928c0,0,23.848-9.107,39.598-5.803c0,0,10.416-0.201,11.416-11.029
	C298.158,426.813,351.766,420.711,319.129,465.594z"/>
<path fill="#FFFFFF" stroke="#000000" stroke-width="2" d="M274.095,504.494c0,0,9.063-6.271,6.667-21.334c0,0,1.667,8.447,8,6.834"
	/>
<g>
	<path fill="#DE061C" stroke="#000000" stroke-width="2" d="M327.553,336.017c0,0-22.924-17.406-47.555-10.431
		c0,0-17.613,5.417-19.122-5.054c0,0-1.905-9.354,8.543-14.662c0,0-1.073,12.835,13.938,13.451
		C283.356,319.321,316.99,320.848,327.553,336.017z"/>
	<path fill="#DE061C" stroke="#000000" stroke-width="2" d="M273.162,408.797c0,0-8.831,4.15-8.917-1.75
		c0,0,0.087-4.365,8.917-4.633c0,0,12.169,0.034,14.583-4.617c0,0-0.247,8.819,8.499,11c0,0-4.979-9.109,10.635-14.36
		c0,0,12.494-4.28,13.115-20.141c0,0,0.879,13.735-5.25,22.5c0,0,7.744,0.529,11.123-15.485c0,0,2.25,5.125,7.25,7
		c0,0-7.119-9.029-3.873-23.015c0,0,26.838-17.056,18.418-47.583c0,0,6.762,4.568,10.463-3.167c0,0-12.293-4.931-2.463-13.833
		c0,0-3.51-3.065-7.334,0c0,0,4.502-10.598-4.834-12.5c0,0,1.852,5.431-2.992,3.931c0,0-49.01-7.5-38.01,3.833
		c0,0-6.828-3.862-7.33,5.236c0,0-19.664-5.617-10,5.74c0,0-2.749,3.257,3,8.26c0,0-1.004-8.3,9.83-2.768
		c0,0,7.604,3.99,5.301-3.655c0,0-1.582-4.763,7.893,1.379c0,0,6.826,3.258-0.518,6.617c0,0-4.123-0.711,0.518,9.24
		c0,0,4.283,8.585-4.455,5.769c0,0-28.738-18.217-17.571,5.816c0,0,4.339-8.662,14.335-2.397c0,0-7.09,13.454-18.879,1.442
		c0,0-9.839-10.874-16.397-2.109c0,0,5.259-1.253,7.434,5.006c0,0,2.341,3.425,6.841,3.259c0,0-10.383-3.529-14.274,4.402
		c0,0-1.892,7.431-10.892,6.098c0,0-13.666-1.167-11-16.5c0,0-15.334,19.096,5.666,32.798c0,0-3.661,8.173-16.497,7.938
		c0,0,2.003,5.402,15.5,3.25c0,0-11.329,5.626-4.75,16.25c0,0,5.086-10.297,13.25-8.183c0,0-3.164,5.085,1,8.183
		c0,0-6.165,7.924,0.333,13.51C260.828,410.557,267.413,415.647,273.162,408.797z"/>
	<path fill="#DE061C" stroke="#000000" stroke-width="2" d="M250.626,371.687c0,0,5.799-7.578,7.547-16.071"/>
	<path fill="#DE061C" stroke="#000000" stroke-width="2" d="M259.495,388.864c5.167-6.182,15.167-11.15,15.167-11.15"/>
	<path fill="#DE061C" stroke="#000000" stroke-width="2" d="M249.511,381.466c0,0,3-2.583,12-3.75c0,0,9.834-0.833,15.167-12.5"/>
	<path fill="#DE061C" stroke="#000000" stroke-width="2" d="M305.93,301.692c0,0,7.375-8.5,14.75,0c0,0-1.75,6.375-6.25,3.375
		c0,0-1.479-2.024-4.5-3.175C309.93,301.893,307.555,300.817,305.93,301.692z"/>
	<path fill="#DE061C" stroke="#000000" stroke-width="2" d="M334.973,319.803c0,0,9.998,0.181,11.332-11.819
		c0,0,0.334-14.5-16.666-11.167"/>
	<path fill="#DE061C" stroke="#000000" stroke-width="2" d="M329.639,303.651c0,0,6.965-4.204,11.334,2.167c0,0,1.832,4.679-3,5.839
		c0,0-4.334,0.815-3.334-3.595C334.639,308.062,335.807,302.484,329.639,303.651z"/>
</g>
<path fill="#FFFFFF" stroke="#000000" stroke-width="2" d="M350.543,377.056c0,0,0.283,10,5.199,21.417"/>
<path fill="#F4E500" stroke="#000000" stroke-width="2" d="M252,337.995v51.66h-74.513v-51.66c0,0,11.464-18.53,37.257-7.104
	C214.744,330.891,236.553,318.196,252,337.995z"/>
<path fill="#F4E500" stroke="#000000" stroke-width="2" d="M247.333,384.921v-53.233c-13.512-20.549-32.589-7.373-32.589-7.373
	c-22.561-11.859-32.589,7.373-32.589,7.373v53.619c0,0,10.405-18.979,32.672-7.373c0,0,18.546-13.02,32.267,7.036
	C247.164,384.941,247.25,384.934,247.333,384.921z"/>
<line fill="#F4E500" stroke="#000000" stroke-width="2" x1="214.743" y1="324.315" x2="214.743" y2="377.934"/>
<path fill="#DE061C" stroke="#000000" stroke-width="2" d="M259.495,388.864c-7.497-1.947-13.44,7.841-13.44,7.841
	c-1.418-2.396-1.754-4.622-1.833-5.646c-0.375-0.074-0.619-0.323-0.712-0.638c-0.068,0.01-0.121,0.018-0.193,0.029
	c-4.176,0.64-32.158-0.973-32.158-0.973c4.307-2.908,2.618-9-0.248-12.455c-1.048-1.264-3.426-0.986-3.748-2.905
	c-0.074-0.441,0.303-2.248,0.829-2.432c-13.5,4.708-6.333,14.125-6.784,14.938c-13.951,1.979-13.517,12.188-13.517,12.188
	c1.866,13.333,15.797,10.49,15.797,10.49c7.663,1.658,38.836-6.157,38.836-6.157c-9.334,14.833,0.111,19.334,0.111,19.334
	c-2.889-3.333,0-5.72,0-5.72c2.934-0.001,4.143-4.584,4.565-6.878c-0.51,5.685,4.624,6.878,4.624,6.878
	c-2.836-8.868,3.089-12.267,5.543-13.265c0.089-0.359,0.358-0.652,0.805-0.702c-0.005-0.235,0.055-0.471,0.195-0.658
	c0.504-1.739,2.327-5.086,2.327-5.086C256.998,394.449,259.495,388.864,259.495,388.864z"/>
<path fill="#DE061C" stroke="#000000" stroke-width="2" d="M209.159,316.758c0,0-18.5-4.928-9.333,11c0,0-2.792,2.489,2.5,5.333
	c0,0-1.008-3.182,0.892-5.231c0,0,3.483,1.303,5.941-2.436c0,0-1.417,3.614,2.833,5c0,0-1.125,3.636,3,6.386c0,0-0.625-4.25,0-5.875
	c0,0,4.375-0.851,6.375-6.675c0,0,1.125,5.664,5.292,5.331c0,0,0.375,4.572,3.167,4.833c0,0-2.113-3.883,0-5.114
	c0,0,4.797-0.125,5.669-7.875c0,0-0.878-9.261-8.128-9.005c0,0-5.375-0.495-6.25,5.88c0,0,0.486-4.25-6.132-5.563
	C214.985,312.749,209.325,311.955,209.159,316.758z"/>
<g>
	<path fill="#9E834E" stroke="#000000" stroke-width="2" d="M477.521,758.374l31.166,17.5c0,0,23.374,12.166,31.841-8.75
		c0,0,11.999-12.732-10.768-79.658c0,0-44.661,19.566-43.496,33.57C486.264,721.036,498.607,750.708,477.521,758.374z"/>
	<path fill="#9E834E" stroke="#000000" stroke-width="2" d="M391.647,750.042c0,0,93.494-4.5,148.88-75c0,0,7.114-9-5.081-20.5
		l-32.52-35.5c0,0-36.585,56.5-125.507,65.5c0,0,19.309,38.498,19.309,38.5c0.817,1.627,1.342,3.318,1.403,5.15
		c0.06,1.754-0.306,3.508-1.06,5.1c-0.638,1.342-1.686,2.26-2.662,3.35c-0.994,1.109-1.951,2.254-2.843,3.447
		C389.458,742.919,385.496,749.312,391.647,750.042z"/>
	<path fill="#9E834E" stroke="#000000" stroke-width="2" d="M477.521,758.374c0,0-13.212-9.082-13.593-18.707
		c0,0,11.379,10.707,23.983,9.354C487.911,749.021,486.412,755.083,477.521,758.374z"/>
	<path fill="#9E834E" stroke="#000000" stroke-width="2" d="M397.632,725.276c8.778-0.014-8.581,23.691-8.581,23.691l-8.582-19.676
		c0.677,1.553-3.049-6.418-3.049-6.418S396.502,720.345,397.632,725.276"/>
	<path fill="#9E834E" stroke="#000000" stroke-width="2" d="M502.927,619.042c0,0-22.719-26.93-24.4,25.451
		C478.526,644.493,499.201,626.874,502.927,619.042z"/>
</g>
<g>
	<path fill="#9E834E" stroke="#000000" stroke-width="2" d="M109.509,758.591l-31.165,17.5c0,0-23.374,12.166-31.843-8.75
		c0,0-11.998-12.734,10.769-79.658c0,0,44.661,19.564,43.495,33.57C100.765,721.253,88.421,750.923,109.509,758.591z"/>
	<path fill="#9E834E" stroke="#000000" stroke-width="2" d="M195.382,750.257c0,0-93.495-4.5-148.881-75c0,0-7.113-9,5.082-20.5
		l32.52-35.5c0,0,36.585,56.5,125.507,65.5c0,0-19.309,38.498-19.309,38.5c-0.817,1.629-1.343,3.318-1.404,5.15
		c-0.059,1.754,0.307,3.51,1.061,5.1c0.637,1.344,1.686,2.262,2.662,3.35c0.995,1.109,1.951,2.254,2.842,3.447
		C197.571,743.136,201.532,749.526,195.382,750.257z"/>
	<path fill="#9E834E" stroke="#000000" stroke-width="2" d="M109.509,758.591c0,0,13.211-9.084,13.593-18.709
		c0,0-11.379,10.707-23.982,9.354C99.119,749.235,100.616,755.298,109.509,758.591z"/>
	<path fill="#9E834E" stroke="#000000" stroke-width="2" d="M189.397,725.493c-8.779-0.016,8.581,23.691,8.581,23.691l8.582-19.678
		c-0.678,1.555,3.049-6.416,3.049-6.416S190.527,720.562,189.397,725.493"/>
	<path fill="#9E834E" stroke="#000000" stroke-width="2" d="M84.103,619.257c0,0,22.719-26.93,24.401,25.453
		C108.504,644.71,87.829,627.089,84.103,619.257z"/>
</g>
<path fill="#FFFFFF" stroke="#000000" stroke-width="3" d="M218.502,672.257"/>
<path fill="#FFFFFF" stroke="#000000" stroke-width="3" d="M335.195,725.011"/>
<path fill="#9E834E" stroke="#000000" stroke-width="2" d="M274.701,707.226 M293.538,739.856
	c-17.317,0.209-53.35-0.689-79.102-10.422c0,0-20.483-9.25-27.519-2.75l27.01-54c0,0,6.014-15.25,26.169-9
	c0,0,21.568,7.83,53.489,8.338 M293.506,672.022c31.92-0.508,53.49-8.338,53.49-8.338c20.156-6.25,26.168,9,26.168,9l27.01,54
	c-7.034-6.5-27.518,2.75-27.518,2.75c-25.752,9.732-61.785,10.631-79.103,10.422"/>
<g>
	<g>
		<path d="M83.665,671.278c0.168,0.193,0.252,0.292,0.421,0.485c-2.285,1.502-3.435,2.245-5.75,3.714
			c-6.45-5.088-9.585-7.762-15.653-13.351c0.176-0.191,0.265-0.287,0.441-0.479c0.294,0.271,0.442,0.409,0.737,0.679
			c0.829,0.758,1.647,1.049,2.442,0.881c0.453-0.096,1.134-0.65,2.041-1.663c4.104-4.584,6.155-6.875,10.259-11.459
			c0.993-1.109,1.49-1.919,1.489-2.421c-0.001-0.694-0.345-1.349-1.024-1.971c-0.27-0.247-0.404-0.371-0.674-0.619
			c0.176-0.191,0.265-0.286,0.441-0.478c3.233,2.979,4.881,4.43,8.236,7.253c-0.167,0.199-0.253,0.298-0.421,0.497
			c-0.979-0.839-1.739-1.336-2.294-1.489s-1.026-0.152-1.417,0.005s-1.053,0.771-1.984,1.84c-3.933,4.519-5.898,6.778-9.831,11.297
			c-0.639,0.733-1.01,1.312-1.081,1.714c-0.049,0.28,0.019,0.585,0.188,0.886s0.895,1.007,2.195,2.104
			c0.59,0.497,0.885,0.744,1.478,1.237c1.557,1.295,2.75,2.083,3.555,2.385s1.684,0.392,2.635,0.27S82.236,672.036,83.665,671.278z"
			/>
		<path d="M100.098,681.426c-3.307-2.206-4.941-3.342-8.166-5.675c-1.447,0.811-2.173,1.212-3.634,2.007
			c-0.899,0.488-1.487,0.914-1.759,1.282c-0.216,0.292-0.252,0.663-0.106,1.111s0.708,1.081,1.692,1.892
			c-0.152,0.211-0.229,0.317-0.381,0.528c-2.707-1.949-4.045-2.946-6.693-4.98c0.159-0.206,0.237-0.308,0.396-0.514
			c0.983,0.534,1.692,0.779,2.119,0.753c0.862-0.054,2.14-0.526,3.804-1.436c7.619-4.114,11.338-6.281,18.583-10.814
			c0.205,0.142,0.307,0.212,0.512,0.353c-1.728,8.435-2.463,12.705-3.675,21.339c-0.243,1.735-0.229,2.966,0.029,3.688
			s0.828,1.395,1.714,2.008c-0.136,0.222-0.204,0.331-0.34,0.553c-3.554-2.183-5.312-3.309-8.783-5.629
			c0.145-0.216,0.217-0.326,0.361-0.542c0.9,0.545,1.582,0.805,2.038,0.782s0.79-0.198,1.002-0.521
			c0.282-0.432,0.511-1.254,0.696-2.465C99.736,683.653,99.854,682.911,100.098,681.426z M100.381,680.049
			c0.705-4.166,1.087-6.235,1.914-10.353c-3.604,2.188-5.43,3.257-9.126,5.344C96.021,677.094,97.464,678.095,100.381,680.049z"/>
		<path d="M126.235,692.037c-0.022,0.049,2.307,2.214,2.738,3.296c0.6,1.504,0.565,2.959-0.124,4.356
			c-0.523,1.062-1.389,1.899-2.608,2.503s-2.588,0.799-4.101,0.581s-3.591-1.018-6.201-2.443c-4.376-2.392-6.538-3.64-10.8-6.232
			c0.135-0.223,0.202-0.332,0.337-0.555c0.339,0.206,0.509,0.309,0.849,0.514c0.943,0.569,1.795,0.706,2.519,0.4
			c0.462-0.195,1.036-0.88,1.714-2.031c3.125-5.307,4.688-7.962,7.813-13.27c0.75-1.272,1.073-2.166,0.972-2.674
			c-0.135-0.679-0.596-1.251-1.378-1.723c-0.311-0.188-0.466-0.28-0.777-0.469c0.135-0.223,0.204-0.333,0.339-0.556
			c3.557,2.163,5.357,3.207,9.001,5.217c1.7,0.938,3.007,1.793,3.914,2.587c1.374,1.202,2.247,2.488,2.606,3.872
			s0.239,2.7-0.383,3.948c-0.533,1.069-1.348,1.857-2.454,2.355C129.105,692.214,126.235,692.037,126.235,692.037z M118.149,686.546
			c0.356,0.298,0.781,0.61,1.272,0.934s1.046,0.655,1.663,0.996c1.581,0.873,2.866,1.353,3.84,1.452s1.85-0.08,2.625-0.533
			c0.776-0.454,1.37-1.086,1.785-1.888c0.641-1.238,0.664-2.563,0.096-3.976s-1.819-2.633-3.754-3.703
			c-1.041-0.576-2.035-0.989-2.99-1.237C120.873,681.772,119.964,683.364,118.149,686.546z M112.505,696.44
			c1.144,1.017,2.36,1.877,3.641,2.58c2.052,1.126,3.857,1.537,5.382,1.257s2.603-1.054,3.246-2.305
			c0.423-0.823,0.588-1.74,0.502-2.748s-0.55-2.01-1.387-3.012s-2.032-1.923-3.586-2.783c-0.674-0.373-1.254-0.686-1.742-0.934
			s-0.892-0.43-1.212-0.545C115.411,691.347,114.442,693.045,112.505,696.44z"/>
		<path d="M150.637,689.989c2.881,1.203,4.955,3.277,6.294,6.298s1.465,6.18,0.266,9.483c-1.236,3.403-3.414,5.82-6.608,7.165
			s-6.516,1.326-9.846-0.069c-3.365-1.41-5.703-3.731-6.954-6.873s-1.025-6.387,0.568-9.729c1.628-3.416,4.174-5.611,7.562-6.691
			C144.86,688.636,147.734,688.776,150.637,689.989z M149.829,691.044c-1.996-0.837-3.894-0.807-5.742,0.104
			c-2.301,1.132-4.261,3.4-5.836,6.854c-1.615,3.54-2.055,6.647-1.234,9.296c0.626,2.021,2.033,3.507,4.174,4.404
			c2.285,0.958,4.519,0.912,6.646-0.129s3.844-3.338,5.187-6.852c1.455-3.809,1.756-6.955,0.955-9.415
			C153.339,693.342,151.956,691.936,149.829,691.044z"/>
		<path d="M180.482,725.431c-2.762-0.682-4.136-1.039-6.875-1.792c-2.291-5.253-3.354-7.887-5.319-13.167
			c-0.616-0.167-1.116-0.313-1.497-0.435c-0.155-0.049-0.32-0.105-0.497-0.168s-0.358-0.131-0.545-0.203
			c-0.851,2.637-1.276,3.956-2.127,6.593c-0.46,1.428-0.566,2.373-0.338,2.827c0.316,0.631,0.94,1.11,1.885,1.404
			c0.396,0.123,0.594,0.186,0.99,0.307c-0.076,0.249-0.114,0.371-0.19,0.62c-4.35-1.335-6.509-2.049-10.791-3.563
			c0.087-0.245,0.129-0.366,0.216-0.611c0.375,0.133,0.564,0.198,0.939,0.329c1.055,0.369,1.919,0.313,2.583-0.147
			c0.371-0.257,0.779-1.03,1.214-2.318c1.972-5.835,2.959-8.751,4.931-14.586c0.48-1.421,0.615-2.36,0.418-2.811
			c-0.277-0.634-0.842-1.106-1.708-1.409c-0.344-0.12-0.517-0.181-0.86-0.302c0.087-0.245,0.13-0.367,0.217-0.612
			c3.318,1.174,4.989,1.731,8.353,2.787c2.451,0.77,4.217,1.477,5.29,2.171s1.89,1.631,2.458,2.813s0.682,2.435,0.326,3.759
			c-0.381,1.414-1.195,2.512-2.455,3.281c-1.261,0.771-2.986,1.083-5.161,0.904c1.238,3.218,1.889,4.825,3.248,8.033
			c0.775,1.84,1.545,3.123,2.283,3.849s1.795,1.334,3.169,1.817C180.575,725.054,180.544,725.178,180.482,725.431z M166.088,708.615
			c0.225,0.072,0.42,0.136,0.584,0.194s0.3,0.104,0.407,0.138c2.302,0.732,4.194,0.785,5.644,0.187s2.378-1.642,2.798-3.105
			c0.411-1.431,0.277-2.724-0.378-3.887s-1.727-1.97-3.224-2.434c-0.663-0.205-1.589-0.377-2.786-0.528
			C167.916,702.953,167.305,704.842,166.088,708.615z"/>
	</g>
</g>
<g>
	<g>
		<path d="M392.474,707.272c2.549-0.662,3.817-1.006,6.348-1.725c7.652,5.259,11.632,7.768,19.873,12.519
			c-1.77-5.205-2.655-7.805-4.425-13.011c-0.472-1.387-0.928-2.198-1.356-2.437c-0.574-0.319-1.313-0.337-2.218-0.038
			c-0.319,0.105-0.479,0.158-0.799,0.263c-0.081-0.247-0.12-0.371-0.201-0.618c3.2-1.046,4.792-1.593,7.956-2.729
			c0.088,0.245,0.133,0.368,0.221,0.613c-0.322,0.116-0.484,0.17-0.808,0.285c-0.964,0.344-1.549,0.872-1.754,1.588
			c-0.126,0.439,0.027,1.294,0.464,2.557c2.627,7.596,3.943,11.392,6.57,18.986c-0.263,0.091-0.394,0.136-0.656,0.227
			c-9.023-5.018-13.377-7.689-21.723-13.306c1.599,5.648,2.401,8.472,4.001,14.12c0.399,1.409,0.816,2.25,1.247,2.498
			c0.595,0.342,1.397,0.366,2.372,0.081c0.355-0.104,0.53-0.156,0.886-0.262c0.074,0.249,0.11,0.377,0.185,0.626
			c-3.499,1.035-5.258,1.529-8.791,2.464c-0.066-0.252-0.099-0.378-0.165-0.63c0.351-0.093,0.526-0.142,0.877-0.235
			c1.082-0.29,1.768-0.794,2.049-1.504c0.173-0.436,0.081-1.298-0.276-2.585c-1.771-6.389-2.66-9.581-4.431-15.97
			c-0.9-0.589-1.556-0.963-1.976-1.116s-1.006-0.25-1.741-0.28c-0.36-0.015-0.885,0.071-1.567,0.249
			C392.569,707.65,392.539,707.524,392.474,707.272z"/>
		<path d="M430.355,694.001c2.886-1.195,5.82-1.191,8.894,0.008s5.373,3.359,6.847,6.551c1.518,3.287,1.687,6.53,0.402,9.723
			s-3.603,5.507-6.893,6.865c-3.325,1.374-6.583,1.393-9.676,0.072s-5.246-3.752-6.52-7.229c-1.302-3.554-1.093-6.909,0.516-10.082
			C425.322,697.155,427.447,695.205,430.355,694.001z M430.531,695.318c-1.999,0.825-3.313,2.197-3.963,4.151
			c-0.811,2.433-0.566,5.423,0.79,8.969c1.39,3.634,3.289,6.127,5.732,7.411c1.864,0.979,3.885,1.033,6.002,0.159
			c2.26-0.933,3.78-2.534,4.531-4.766s0.339-5.067-1.189-8.504c-1.657-3.726-3.661-6.168-5.962-7.344
			C434.636,694.457,432.662,694.438,430.531,695.318z"/>
		<path d="M457.063,681.308c1.565,2.903,2.35,4.353,3.915,7.255c-0.237,0.128-0.356,0.192-0.594,0.32
			c-0.94-1.291-1.875-2.219-2.808-2.785s-1.981-0.853-3.144-0.868s-2.226,0.221-3.199,0.715c-1.101,0.559-1.849,1.347-2.245,2.373
			s-0.391,1.965,0.026,2.817c0.319,0.652,0.847,1.133,1.572,1.441c1.059,0.45,3.187,0.721,6.393,0.717
			c2.615-0.002,4.457,0.051,5.516,0.209s2,0.507,2.824,1.046s1.467,1.223,1.922,2.056c0.865,1.583,0.952,3.312,0.229,5.184
			s-2.165,3.376-4.311,4.477c-0.673,0.346-1.335,0.621-1.974,0.829c-0.38,0.124-1.212,0.304-2.494,0.526s-2.072,0.401-2.371,0.547
			c-0.287,0.14-0.475,0.328-0.565,0.567s-0.059,0.626,0.099,1.161c-0.257,0.123-0.387,0.185-0.644,0.308
			c-1.41-2.95-2.114-4.423-3.524-7.373c0.25-0.12,0.378-0.182,0.628-0.302c1.034,1.401,1.985,2.363,2.857,2.884
			s1.952,0.779,3.235,0.771s2.543-0.326,3.771-0.954c1.421-0.728,2.363-1.656,2.818-2.771s0.428-2.138-0.068-3.068
			c-0.275-0.518-0.707-0.957-1.292-1.323s-1.319-0.605-2.196-0.729c-0.593-0.084-2.118-0.13-4.557-0.174s-4.206-0.192-5.314-0.407
			s-2.047-0.597-2.819-1.136s-1.368-1.254-1.792-2.143c-0.736-1.544-0.764-3.161-0.105-4.855s1.893-2.989,3.715-3.914
			c1.138-0.577,2.485-0.926,4.038-1.036c0.721-0.052,1.206-0.141,1.447-0.269c0.272-0.145,0.454-0.346,0.541-0.598
			s0.052-0.646-0.104-1.188C456.72,681.493,456.833,681.432,457.063,681.308z"/>
		<path d="M478.439,669.213c1.313,1.813,1.972,2.717,3.288,4.527c-0.23,0.15-0.344,0.228-0.574,0.378
			c-0.649-0.752-1.187-1.247-1.606-1.475c-0.679-0.368-1.365-0.522-2.056-0.462s-1.455,0.361-2.301,0.895
			c-1.153,0.728-1.731,1.089-2.893,1.803c3.814,6.207,5.72,9.306,9.536,15.513c0.768,1.248,1.395,1.942,1.875,2.065
			c0.663,0.169,1.437-0.017,2.292-0.553c0.306-0.191,0.458-0.288,0.763-0.48c0.139,0.22,0.21,0.329,0.349,0.549
			c-3.737,2.358-5.626,3.503-9.442,5.728c-0.131-0.225-0.197-0.336-0.328-0.561c0.318-0.186,0.474-0.278,0.791-0.465
			c0.948-0.556,1.465-1.221,1.545-1.978c0.049-0.465-0.27-1.271-0.956-2.418c-3.743-6.251-5.614-9.372-9.355-15.624
			c-0.998,0.598-1.497,0.893-2.501,1.48c-0.976,0.57-1.636,1.044-1.962,1.423c-0.427,0.495-0.675,1.134-0.747,1.902
			s0.116,1.644,0.572,2.624c-0.239,0.135-0.359,0.202-0.6,0.337c-0.992-2.008-1.489-3.009-2.484-5.015
			C468.496,675.559,471.859,673.52,478.439,669.213z"/>
		<path d="M514.136,672.858c-2.19,1.729-3.296,2.583-5.522,4.262c-5.508-1.431-8.226-2.205-13.586-3.864
			c-0.501,0.385-0.912,0.69-1.236,0.918c-0.132,0.093-0.277,0.19-0.433,0.292s-0.316,0.204-0.485,0.308
			c1.585,2.271,2.379,3.407,3.965,5.68c0.858,1.23,1.543,1.887,2.037,1.983c0.688,0.135,1.44-0.064,2.233-0.628
			c0.332-0.236,0.498-0.353,0.829-0.59c0.151,0.212,0.229,0.315,0.38,0.527c-3.637,2.603-5.478,3.873-9.2,6.343
			c-0.144-0.217-0.22-0.324-0.363-0.541c0.326-0.216,0.487-0.325,0.813-0.543c0.915-0.611,1.382-1.332,1.408-2.135
			c0.015-0.448-0.358-1.237-1.123-2.361c-3.466-5.093-5.197-7.636-8.663-12.729c-0.844-1.24-1.511-1.916-1.987-2.031
			c-0.671-0.162-1.387,0.004-2.146,0.512c-0.302,0.202-0.453,0.303-0.756,0.504c-0.144-0.217-0.219-0.323-0.362-0.54
			c2.925-1.94,4.376-2.933,7.244-4.962c2.09-1.479,3.722-2.446,4.921-2.872s2.436-0.504,3.715-0.229s2.335,0.954,3.165,2.045
			c0.887,1.166,1.267,2.477,1.116,3.939s-0.941,3.012-2.387,4.616c3.289,0.987,4.946,1.456,8.29,2.357
			c1.915,0.521,3.388,0.707,4.4,0.576s2.127-0.575,3.331-1.347C513.894,672.554,513.975,672.654,514.136,672.858z M492.24,673.864
			c0.192-0.134,0.359-0.245,0.504-0.34s0.263-0.178,0.354-0.241c1.956-1.375,3.129-2.833,3.525-4.341s0.132-2.873-0.773-4.098
			c-0.885-1.196-1.988-1.886-3.307-2.075s-2.606,0.17-3.877,1.075c-0.563,0.4-1.261,1.033-2.101,1.891
			C488.835,668.987,489.971,670.612,492.24,673.864z"/>
		<path d="M522.445,655.506c-2.961,2.622-4.461,3.908-7.5,6.43c0.428,1.6,0.638,2.402,1.051,4.01
			c0.254,0.989,0.521,1.664,0.811,2.019c0.229,0.281,0.579,0.406,1.046,0.38s1.21-0.404,2.229-1.146c0.166,0.2,0.252,0.3,0.418,0.5
			c-2.532,2.109-3.813,3.144-6.396,5.184c-0.161-0.204-0.242-0.306-0.403-0.51c0.747-0.813,1.151-1.436,1.227-1.853
			c0.153-0.844,0.007-2.188-0.47-4.02c-2.133-8.376-3.303-12.516-5.85-20.68c0.188-0.163,0.284-0.244,0.473-0.407
			c7.732,3.797,11.669,5.6,19.684,9.011c1.611,0.685,2.805,0.991,3.565,0.933s1.553-0.435,2.37-1.126
			c0.179,0.189,0.266,0.286,0.444,0.476c-3.013,2.845-4.542,4.24-7.641,6.979c-0.172-0.195-0.256-0.292-0.428-0.487
			c0.749-0.725,1.168-1.31,1.261-1.755s0.009-0.813-0.25-1.102c-0.345-0.384-1.082-0.816-2.203-1.308
			C524.503,656.428,523.816,656.123,522.445,655.506z M521.191,654.882c-3.844-1.747-5.749-2.645-9.524-4.482
			c1.208,4.04,1.785,6.074,2.893,10.166C517.242,658.331,518.57,657.195,521.191,654.882z"/>
	</g>
</g>
<g>
	<g>
		<path d="M232.971,705.766c0.236,0.094,0.354,0.142,0.591,0.234c-1.327,2.388-2,3.578-3.361,5.953
			c-7.95-1.512-11.909-2.396-19.774-4.415c0.065-0.252,0.096-0.378,0.161-0.63c0.381,0.098,0.572,0.146,0.954,0.243
			c1.072,0.271,1.923,0.145,2.539-0.38c0.351-0.299,0.686-1.111,1.008-2.432c1.46-5.977,2.19-8.966,3.649-14.942
			c0.353-1.445,0.412-2.393,0.175-2.835c-0.328-0.611-0.942-1.029-1.834-1.256c-0.354-0.09-0.53-0.136-0.885-0.227
			c0.064-0.252,0.096-0.377,0.161-0.629c4.256,1.093,6.393,1.598,10.678,2.53c-0.055,0.254-0.083,0.382-0.138,0.636
			c-1.256-0.285-2.164-0.37-2.725-0.245s-0.978,0.348-1.249,0.67s-0.567,1.173-0.888,2.555c-1.354,5.836-2.031,8.753-3.385,14.589
			c-0.22,0.947-0.278,1.634-0.155,2.022c0.086,0.271,0.286,0.502,0.572,0.688s1.246,0.47,2.884,0.828
			c0.743,0.162,1.114,0.24,1.858,0.398c1.953,0.415,3.354,0.558,4.195,0.45s1.653-0.435,2.432-0.983
			S232.059,707.099,232.971,705.766z"/>
		<path d="M255.388,693.032c-0.438,3.743-0.658,5.614-1.096,9.357c1.881,0.22,2.823,0.325,4.707,0.517
			c1.405,0.143,2.419-0.021,3.038-0.471s1.034-1.317,1.245-2.604c0.261,0.023,0.392,0.033,0.653,0.056
			c-0.284,3.3-0.426,4.952-0.709,8.252c-0.269-0.023-0.402-0.036-0.67-0.06c-0.046-1.181-0.178-1.982-0.394-2.408
			s-0.622-0.785-1.174-1.09c-0.269-0.148-0.976-0.285-2.117-0.4c-1.892-0.191-2.837-0.295-4.727-0.516
			c-0.367,3.136-0.551,4.704-0.918,7.84c-0.124,1.06-0.153,1.694-0.088,1.908s0.228,0.409,0.491,0.581s0.756,0.297,1.479,0.376
			c1.385,0.152,2.077,0.226,3.462,0.362c1.383,0.137,2.46,0.129,3.227-0.015s1.526-0.496,2.27-1.042
			c0.981-0.72,1.824-1.705,2.509-2.959c0.286,0.021,0.427,0.03,0.713,0.051c-0.984,2.333-1.483,3.498-2.498,5.823
			c-7.791-0.614-11.685-1.04-19.438-2.132c0.036-0.258,0.055-0.387,0.091-0.645c0.388,0.055,0.582,0.081,0.97,0.135
			c1.052,0.145,1.879-0.036,2.431-0.542c0.352-0.322,0.618-1.204,0.799-2.61c0.257-1.994,0.385-2.991,0.642-4.986
			c-2.933-0.377-4.396-0.583-7.322-1.03c-1.164,1.479-1.753,2.216-2.94,3.685c-1.118,1.387-1.725,2.311-1.803,2.784
			c-0.053,0.323,0.09,0.657,0.43,0.992s1.11,0.643,2.312,0.912c-0.04,0.257-0.06,0.384-0.1,0.641
			c-3.24-0.503-4.857-0.775-8.086-1.362c0.046-0.256,0.07-0.384,0.116-0.64c0.557,0.089,1.053,0.065,1.486-0.072
			s0.931-0.437,1.489-0.899s1.3-1.243,2.215-2.35c3.974-4.833,5.898-7.284,9.616-12.233c1.156-1.529,1.762-2.588,1.842-3.168
			c0.051-0.371-0.081-0.683-0.358-0.937c-0.36-0.33-1.197-0.643-2.504-0.906c0.038-0.258,0.057-0.387,0.095-0.645
			c7.826,1.153,11.757,1.596,19.626,2.224c-0.061,2.098-0.089,3.147-0.146,5.245c-0.245-0.02-0.368-0.031-0.613-0.051
			c-0.059-1.216-0.282-2.157-0.67-2.822c-0.281-0.481-0.719-0.856-1.304-1.117c-0.332-0.147-1.134-0.276-2.401-0.399
			C258.912,693.434,257.737,693.307,255.388,693.032z M251.983,692.614c-3.145,4.444-4.767,6.646-8.11,11.007
			c2.627,0.396,3.942,0.578,6.575,0.917C251.062,699.769,251.37,697.385,251.983,692.614z"/>
		<path d="M290.606,693.741c0.112,2.235,0.167,3.355,0.283,5.591c-0.275,0.001-0.414,0-0.688,0
			c-0.134-0.984-0.312-1.688-0.539-2.108c-0.368-0.679-0.86-1.182-1.472-1.508s-1.415-0.491-2.414-0.505
			c-1.363-0.019-2.045-0.034-3.407-0.068c-0.185,7.282-0.277,10.923-0.462,18.205c-0.037,1.465,0.109,2.39,0.445,2.754
			c0.463,0.503,1.214,0.766,2.222,0.782c0.36,0.006,0.538,0.011,0.897,0.016c-0.003,0.26-0.003,0.389-0.007,0.648
			c-4.411-0.062-6.617-0.13-11.023-0.344c0.013-0.26,0.019-0.389,0.031-0.648c0.367,0.018,0.551,0.026,0.918,0.043
			c1.096,0.05,1.888-0.225,2.368-0.815c0.294-0.363,0.465-1.214,0.515-2.549c0.269-7.28,0.404-10.92,0.672-18.199
			c-1.162-0.043-1.743-0.066-2.905-0.121c-1.129-0.053-1.938-0.018-2.419,0.122c-0.627,0.183-1.185,0.587-1.664,1.192
			s-0.798,1.441-0.95,2.512c-0.274-0.018-0.413-0.027-0.688-0.045c0.261-2.224,0.393-3.337,0.649-5.562
			C278.816,693.638,282.748,693.76,290.606,693.741z"/>
		<path d="M304.015,716.618c0.012,0.26,0.019,0.389,0.03,0.648c-4.454,0.197-6.683,0.255-11.14,0.297
			c-0.002-0.26-0.005-0.389-0.007-0.648c0.368-0.004,0.552-0.007,0.919-0.012c1.072-0.013,1.854-0.313,2.317-0.896
			c0.299-0.375,0.433-1.287,0.402-2.717c-0.129-6.158-0.194-9.239-0.323-15.396c-0.025-1.207-0.119-2.004-0.282-2.386
			c-0.124-0.29-0.376-0.544-0.746-0.74c-0.517-0.275-1.074-0.403-1.644-0.396c-0.341,0.004-0.513,0.007-0.854,0.01
			c-0.002-0.26-0.002-0.393-0.005-0.652c4.125-0.039,6.187-0.097,10.309-0.279c0.012,0.26,0.016,0.393,0.027,0.652
			c-0.349,0.016-0.521,0.024-0.869,0.039c-0.983,0.041-1.688,0.354-2.121,0.942c-0.283,0.385-0.406,1.292-0.359,2.721
			c0.2,6.156,0.301,9.232,0.501,15.389c0.039,1.206,0.145,2,0.323,2.38c0.136,0.288,0.414,0.532,0.829,0.728
			c0.557,0.262,1.143,0.382,1.755,0.356C303.452,716.642,303.64,716.635,304.015,716.618z"/>
		<path d="M324.854,691.671c0.37,2.208,0.556,3.312,0.93,5.519c-0.273,0.033-0.41,0.048-0.684,0.08
			c-0.247-0.962-0.506-1.641-0.781-2.032c-0.444-0.632-0.993-1.071-1.64-1.324s-1.469-0.328-2.464-0.227
			c-1.357,0.14-2.037,0.207-3.396,0.33c0.66,7.255,0.989,10.879,1.649,18.135c0.133,1.459,0.386,2.361,0.762,2.685
			c0.519,0.446,1.297,0.623,2.302,0.522c0.358-0.036,0.537-0.054,0.896-0.091c0.026,0.259,0.042,0.388,0.068,0.646
			c-4.396,0.45-6.597,0.637-11,0.935c-0.018-0.26-0.026-0.389-0.044-0.648c0.367-0.024,0.55-0.036,0.917-0.063
			c1.095-0.077,1.85-0.442,2.258-1.085c0.25-0.395,0.321-1.26,0.216-2.592c-0.576-7.263-0.863-10.895-1.439-18.156
			c-1.16,0.092-1.739,0.138-2.9,0.219c-1.128,0.078-1.929,0.207-2.39,0.401c-0.602,0.254-1.105,0.72-1.512,1.376
			s-0.626,1.524-0.653,2.605c-0.274,0.015-0.412,0.021-0.687,0.035c0.002-2.239,0.003-3.359,0-5.599
			C313.111,692.934,317.035,692.602,324.854,691.671z"/>
		<path d="M340.857,712.832c0.042,0.257,0.062,0.385,0.104,0.642c-4.415,0.715-6.629,1.035-11.061,1.594
			c-0.032-0.258-0.048-0.387-0.08-0.645c0.365-0.046,0.547-0.069,0.912-0.116c1.065-0.138,1.811-0.53,2.205-1.163
			c0.254-0.407,0.279-1.329,0.084-2.745c-0.843-6.102-1.263-9.152-2.105-15.254c-0.165-1.195-0.349-1.977-0.556-2.337
			c-0.157-0.273-0.438-0.496-0.829-0.648c-0.547-0.213-1.116-0.275-1.682-0.202c-0.34,0.044-0.512,0.062-0.852,0.104
			c-0.032-0.258-0.046-0.388-0.078-0.646c4.101-0.518,6.147-0.81,10.233-1.471c0.042,0.257,0.062,0.386,0.104,0.643
			c-0.346,0.056-0.52,0.083-0.865,0.138c-0.976,0.155-1.641,0.548-2.003,1.182c-0.237,0.415-0.253,1.33-0.041,2.744
			c0.913,6.091,1.369,9.136,2.282,15.228c0.179,1.193,0.377,1.972,0.599,2.328c0.169,0.271,0.471,0.481,0.906,0.627
			c0.585,0.195,1.187,0.245,1.793,0.148C340.3,712.924,340.485,712.893,340.857,712.832z"/>
		<path d="M357.892,702.089c-3.856,0.862-5.79,1.263-9.665,2.001c-0.397,1.607-0.598,2.412-1.012,4.019
			c-0.256,0.988-0.345,1.709-0.263,2.158c0.065,0.357,0.307,0.637,0.728,0.839s1.257,0.23,2.506,0.073
			c0.049,0.256,0.074,0.385,0.123,0.641c-3.231,0.622-4.851,0.91-8.094,1.448c-0.043-0.257-0.065-0.384-0.108-0.641
			c1.045-0.352,1.7-0.698,1.968-1.027c0.541-0.665,1.061-1.916,1.527-3.75c2.175-8.363,3.147-12.554,4.864-20.931
			c0.244-0.051,0.367-0.077,0.611-0.129c4.935,7.062,7.507,10.549,12.866,17.412c1.078,1.379,1.97,2.228,2.663,2.544
			s1.565,0.371,2.614,0.162c0.064,0.252,0.098,0.378,0.162,0.63c-4.008,1.029-6.018,1.511-10.049,2.408
			c-0.057-0.254-0.086-0.383-0.143-0.637c1.005-0.271,1.653-0.581,1.949-0.926s0.403-0.704,0.316-1.081
			c-0.116-0.502-0.553-1.238-1.296-2.21C359.247,703.896,358.793,703.292,357.892,702.089z M357.097,700.936
			c-2.518-3.389-3.75-5.096-6.166-8.53c-0.895,4.12-1.372,6.182-2.378,10.299C351.978,702.045,353.688,701.691,357.097,700.936z"/>
	</g>
</g>
<g>
	<path stroke="#000000" stroke-width="0.25" d="M232.006,341.816c-1.752,0.039-3.447,0.656-4.566,2.021
		c-1.009,1.23-1.4,2.807-1.569,4.342c-0.063,0.57-0.083,1.151,0.012,1.719c0.231,1.378,1.078,2.549,2.171,3.409
		c0.383,0.302,0.795,0.568,1.227,0.796c0.049,0.025,0.518,0.202,0.525,0.25c0.001,0.004,0.748,4.668,0.748,4.668h-9.152v-4.668
		h1.744c0,0,0.272,1.6,2.583,1.4c-0.355,0.03-1.189-1.021-1.38-1.236c-1.042-1.169-1.776-2.585-2.196-4.078
		c-0.253-0.902-0.33-1.955-0.313-2.885c0.024-1.321,0.935-2.771,1.712-3.803c1.896-2.516,4.899-3.539,8.022-3.27"/>
	<path stroke="#000000" stroke-width="0.25" d="M230.179,341.816c1.752,0.039,3.447,0.656,4.566,2.021
		c1.009,1.23,1.4,2.807,1.569,4.342c0.063,0.57,0.083,1.151-0.012,1.719c-0.231,1.378-1.078,2.549-2.171,3.409
		c-0.383,0.302-0.795,0.568-1.227,0.796c-0.049,0.025-0.518,0.202-0.525,0.25c-0.001,0.004-0.748,4.668-0.748,4.668h9.152v-4.668
		h-1.744c0,0-0.272,1.6-2.583,1.4c0.355,0.03,1.189-1.021,1.38-1.236c1.042-1.169,1.776-2.585,2.196-4.078
		c0.253-0.902,0.331-1.955,0.313-2.885c-0.024-1.321-0.935-2.771-1.712-3.803c-1.896-2.516-4.899-3.539-8.022-3.27"/>
</g>
<path stroke="#000000" stroke-width="0.25" d="M189.194,356.605c1.5,0.375,2.5-1.5,2.5-1.5l6.5-14.75h1.75l6.25,14.625
	c1,2.125,2.625,1.313,2.625,1.313v2.813h-8.25v-2.813h1.625l-1.25-2.813h-5.25l-1.125,3.375h1.75v2.25h-7.125V356.605z
	 M196.944,350.48h3.125l-1.563-3.375L196.944,350.48z"/>
</svg>
